<svg viewBox="0 0 800 800" xmlns="http://www.w3.org/2000/svg"><path d="M400.00000000000006,763.0112196540975 L376.7661591704032,776.5764533461594 M400.00000000000006,763.0112196540975 L400,38.57033121949246 M376.62667863623994,52.05592520532895 L400,38.57033121949246 M376.7661591704032,776.5764533461594 L376.62667863623994,52.05592520532895 M376.7661591704032,776.5764533461594 L391.28610597937245,785.0577698438284 M391.28610597937245,785.0577698438284 L400.0580877242052,779.9347744725875 M400.0580877242052,779.9347744725875 L408.771981744431,785.0238399419703 M408.771981744431,785.0238399419703 L423.1757690345282,776.6103739438066 M423.1757690345282,776.6103739438066 L414.46187527819484,771.5227030486027 M414.46187527819484,771.5227030486027 L414.5199470749898,771.4887880730779 M414.5199470749898,771.4887880730779 L400.00000000000006,763.0112196540975 M414.6071079167261,46.998124754119885 L400,38.57033121949246 M414.5199470749898,771.4887880730779 L414.6071079167261,46.998124754119885 M417.52999102282007,52.05592520532895 L420.452224626437,53.74204612434522 M417.4715674869496,52.08964667304002 L417.52999102282007,52.05592520532895 M414.5494963148764,50.403617602494364 L417.4715674869496,52.08964667304002 M414.6079198512424,50.36989800916194 L414.5494963148764,50.403617602494364 M400,41.94116759760061 L414.6079198512424,50.36989800916194 M379.547775373563,53.74204612434522 L382.47000897718,52.05592520532895 M382.47000897718,52.05592520532895 L400,41.94116759760061 M376.62667863623994,52.05592520532895 L379.547775373563,53.74204612434522 M414.54868757278774,47.031840630564204 L414.6071079167261,46.998124754119885 M423.3149010215792,52.08964670444561 L414.54868757278774,47.031840630564204 M420.452224626437,53.74204612434522 L423.3149010215792,52.08964670444561 M379.56594957555814,161.62834356007517 L379.547775373563,53.74204612434522 M379.56594957555814,161.62834356007517 L382.4846132462909,163.31605577789367 M382.4846132462909,163.31605577789367 L382.46513547397655,28.42631819625757 M382.46513547397655,28.42631819625757 L391.2318364472841,33.48439768064134 M391.28610597937245,785.0577698438284 L391.2318364472841,33.48439768064134 M385.97332935302023,45.068376624578036 L386.44133458596434,45.40410278170066 M386.44133458596434,45.40410278170066 L386.88215869672234,45.85160602090298 M386.88215869672234,45.85160602090298 L387.27017987463347,46.38487969823899 M387.27017987463347,46.38487969823899 L387.58284710852394,46.972925714355085 M387.58284710852394,46.972925714355085 L387.80198633873243,47.58157075436395 M387.80198633873243,47.58157075436395 L387.9148633378152,48.175438515233964 M387.9148633378152,48.175438515233964 L387.9149175424979,48.72001219186535 M387.9149175424979,48.72001219186535 L387.80214729129807,49.183643811263835 M387.80214729129807,49.183643811263835 L387.5831095795754,49.539389188173175 M387.5831095795754,49.539389188173175 L387.27053442548413,49.766571878999116 M387.27053442548413,49.766571878999116 L386.8825908971286,49.851997690761664 M386.8825908971286,49.851997690761664 L386.44182443617774,49.79069914811589 M386.44182443617774,49.79069914811589 L385.9738512749037,49.586243446217054 M385.9738512749037,49.586243446217054 L385.5058671154128,49.250514734949206 M385.5058671154128,49.250514734949206 L385.06506758634254,48.80302396488787 M385.06506758634254,48.80302396488787 L384.6770681703242,48.26977452156018 M384.6770681703242,48.26977452156018 L384.3644168234901,47.681760066277775 M384.3644168234901,47.681760066277775 L384.14528133898585,47.073145168027054 M384.14528133898585,47.073145168027054 L384.0323977130811,46.47930074058678 M384.0323977130811,46.47930074058678 L384.0323260969504,45.93473712965266 M384.0323260969504,45.93473712965266 L384.14507214078316,45.471100002315495 M384.14507214078316,45.471100002315495 L384.36408632510086,45.11533591960733 M384.36408632510086,45.11533591960733 L384.67664139479064,44.88812409446649 M384.67664139479064,44.88812409446649 L385.0645755095776,44.80266691003072 M385.0645755095776,44.80266691003072 L385.50534345418504,44.863937914951634 M385.50534345418504,44.863937914951634 L385.97332935302023,45.068376624578036 M400.0580877242052,779.9347744725875 L400.05844946017925,28.39260052965284 M391.2318364472841,33.48439768064134 L400.05844946017925,28.39260052965284 M408.771981744431,785.0238399419703 L408.8266130124858,33.450674389036465 M400.05844946017925,28.39260052965284 L408.8266130124858,33.450674389036465 M408.8266130124858,33.450674389036465 L417.53486452602345,28.42631819625757 M417.51538675370915,163.31605577789367 L417.53486452602345,28.42631819625757 M417.51538675370915,163.31605577789367 L420.4340504244418,161.62834356007517 M420.4340504244418,161.62834356007517 L420.452224626437,53.74204612434522 M423.1757690345282,776.6103739438066 L423.3149010215792,52.08964670444561 M415.10496762426055,50.07964671205531 L415.04807907087735,50.653006532774384 M415.04807907087735,50.653006532774384 L414.8808562377036,51.25862667583135 M414.8808562377036,51.25862667583135 L414.61301586948116,51.86132207296038 M414.61301586948116,51.86132207296038 L414.26012442906483,52.42606173991999 M414.26012442906483,52.42606173991999 L413.8426877419449,52.92002868616947 M413.8426877419449,52.92002868616947 L413.3849650656352,53.31452047506656 M413.3849650656352,53.31452047506656 L412.91355484237545,53.58660855185735 M412.91355484237545,53.58660855185735 L412.4558523011047,53.72047924667248 M412.4558523011047,53.72047924667248 L412.03845609680275,53.708353922633194 M412.03845609680275,53.708353922633194 L411.6856262821215,53.550929107403874 M411.6856262821215,53.550929107403874 L411.41786600743615,53.25735259151327 M411.41786600743615,53.25735259151327 L411.25074191289974,52.84468828414384 M411.25074191289974,52.84468828414384 L411.193966981125,52.336910685995576 M411.193966981125,52.336910685995576 L411.25084210051114,51.7635342768732 M411.25084210051114,51.7635342768732 L411.41806344989953,51.157886598199866 M411.41806344989953,51.157886598199866 L411.6859146243805,50.55515902593777 M411.6859146243805,50.55515902593777 L412.03882475528576,49.99039102966378 M412.03882475528576,49.99039102966378 L412.4562856656985,49.496404975779456 M412.4562856656985,49.496404975779456 L412.91403185207,49.101908080005956 M412.91403185207,49.101908080005956 L413.38545948638443,48.82983006723123 M413.38545948638443,48.82983006723123 L413.8431693510273,48.69598230177246 M413.8431693510273,48.69598230177246 L414.2605611133603,48.708138167536106 M414.2605611133603,48.708138167536106 L414.6133764348929,48.865593738245366 M414.6133764348929,48.865593738245366 L414.8811135551488,49.15919529172379 M414.8811135551488,49.15919529172379 L415.0482130688522,49.571872068721746 M415.0482130688522,49.571872068721746 L415.10496762426055,50.07964671205531 M414.46187527819484,771.5227030486027 L414.54868757278774,47.031840630564204 M417.5144140009182,159.94072507280322 L420.4340504244418,161.62834356007517 M417.52999102282007,52.05592520532895 L417.5144140009182,159.94072507280322 M417.4754530817902,25.088447866785486 L417.4715674869496,52.08964667304002 M417.5144140009182,159.94072507280322 L414.5957503031728,161.62834356007517 M414.6119808781395,26.740479188771587 L414.5957503031728,161.62834356007517 M417.4754530817902,25.088447866785486 L414.6119808781395,26.740479188771587 M414.5527319648147,23.40279443835351 L417.4754530817902,25.088447866785486 M414.5494963148764,50.403617602494364 L414.5527319648147,23.40279443835351 M414.6079198512424,50.36989800916194 L414.61116849213454,23.369082357855746 M414.61116849213454,23.369082357855746 L414.5527319648147,23.40279443835351 M400,41.94116759760061 L400,14.942230156171604 M400,14.942230156171604 L414.61116849213454,23.369082357855746 M382.4855859990818,159.94072507280322 L379.56594957555814,161.62834356007517 M382.47000897718,52.05592520532895 L382.4855859990818,159.94072507280322 M382.46611039138594,25.05473391190992 L400,14.942230156171604 M382.46611039138594,25.05473391190992 L382.47000897718,52.05592520532895 M417.53486452602345,28.42631819625757 L414.6119808781395,26.740479188771587 M382.46513547397655,28.42631819625757 L385.38801912186057,26.740479188771587 M385.38801912186057,26.740479188771587 L382.46611039138594,25.05473391190992 M385.40424969682726,161.62834356007517 L382.4846132462909,163.31605577789367 M385.38801912186057,26.740479188771587 L385.40424969682726,161.62834356007517 M385.40424969682726,161.62834356007517 L382.4855859990818,159.94072507280322 M387.8144523895795,45.38817890979533 L387.99614540490666,45.51851822914608 M387.99614540490666,45.51851822914608 L388.16728518811124,45.692246855331575 M388.16728518811124,45.692246855331575 L388.317924036208,45.899275694748894 M388.317924036208,45.899275694748894 L388.4393080016537,46.12756835867913 M388.4393080016537,46.12756835867913 L388.52438276025515,46.363861215055465 M388.52438276025515,46.363861215055465 L388.5682033275504,46.59441489306573 M388.5682033275504,46.59441489306573 L388.56822323350394,46.80583464247184 M388.56822323350394,46.80583464247184 L388.524441545399,46.98583118244471 M388.524441545399,46.98583118244471 L388.4394028718989,47.123948174155544 M388.4394028718989,47.123948174155544 L388.3180503540575,47.212153308479685 M388.3180503540575,47.212153308479685 L388.16743654331685,47.24532479597946 M388.16743654331685,47.24532479597946 L387.9963137720851,47.22152986504989 M387.9963137720851,47.22152986504989 L387.8146284204343,47.14216086391144 M387.8146284204343,47.14216086391144 L387.63293788480786,47.01182075759715 M387.63293788480786,47.01182075759715 L387.46180250327586,46.83809441267914 M387.46180250327586,46.83809441267914 L387.3111670401788,46.63106928643026 M387.3111670401788,46.63106928643026 L387.1897846676472,46.4027809167967 M387.1897846676472,46.4027809167967 L387.10471127512994,46.166493066106625 M387.10471127512994,46.166493066106625 L387.06088960397494,45.93594284437495 M387.06088960397494,45.93594284437495 L387.0608670736508,45.724524612138396 M387.0608670736508,45.724524612138396 L387.10464521811264,45.54452730264518 M387.10464521811264,45.54452730264518 L387.1896795438541,45.40640702897798 M387.1896795438541,45.40640702897798 L387.3110298361344,45.3181979660954 M387.3110298361344,45.3181979660954 L387.46164212309054,45.285021689443795 M387.46164212309054,45.285021689443795 L387.6327644214137,45.30881206785625 M387.6327644214137,45.30881206785625 L387.8144523895795,45.38817890979533 M387.8144523895795,45.38817890979533 L387.2007565316046,45.28157912842096 M387.2007565316046,45.28157912842096 L386.58704885309703,45.17498051258576 M386.58704885309703,45.17498051258576 L385.97332935302023,45.068376624578036 M414.5957503031728,161.62834356007517 L417.51538675370915,163.31605577789367 M412.06779320676327,49.70787850053665 L412.0457121180816,49.93047563538738 M412.0457121180816,49.93047563538738 L411.98079289536236,50.16560147496028 M411.98079289536236,50.16560147496028 L411.87680941252876,50.39958881175977 M411.87680941252876,50.39958881175977 L411.739804733325,50.618838232600694 M411.739804733325,50.618838232600694 L411.57773931383673,50.810613235274616 M411.57773931383673,50.810613235274616 L411.40003337098926,50.96376450545006 M411.40003337098926,50.96376450545006 L411.2170131504198,51.06939384356269 M411.2170131504198,51.06939384356269 L411.0393154123224,51.12136202978411 M411.0393154123224,51.12136202978411 L410.87726613435916,51.11664747739019 M410.87726613435916,51.11664747739019 L410.7402849641235,51.05552591494086 M410.7402849641235,51.05552591494086 L410.63633143770704,50.94154573730384 M410.63633143770704,50.94154573730384 L410.5714472972631,50.78133200992505 M410.5714472972631,50.78133200992505 L410.5494046750545,50.58419737741593 M410.5494046750545,50.58419737741593 L410.57148384385266,50.36159768170546 M410.57148384385266,50.36159768170546 L410.63640284285896,50.126467691842606 M410.63640284285896,50.126467691842606 L410.74038784939734,49.892475566147255 M410.74038784939734,49.892475566147255 L410.8773954506662,49.67322181492602 M410.8773954506662,49.67322181492602 L411.0394645211771,49.48144393231729 M411.0394645211771,49.48144393231729 L411.2171740075732,49.328291892497646 M411.2171740075732,49.328291892497646 L411.40019685245255,49.2226640713003 M411.40019685245255,49.2226640713003 L411.577895694422,49.17069934104603 M411.577895694422,49.17069934104603 L411.73994430292976,49.17541849679333 M411.73994430292976,49.17541849679333 L411.87692318377236,49.236544755322825 M411.87692318377236,49.236544755322825 L411.9808733252925,49.350528646041425 M411.9808733252925,49.350528646041425 L412.0457537607735,49.51074425283957 M412.0457537607735,49.51074425283957 L412.06779320676327,49.70787850053665 M412.06779320676327,49.70787850053665 L413.0801803108187,49.83180086541768 M413.0801803108187,49.83180086541768 L414.0925722476965,49.955723334569655 M414.0925722476965,49.955723334569655 L415.10496762426055,50.07964671205531 M387.8144523895795,45.38817890979533 L403.92013683348523,36.09579140627477 M403.92013683348523,36.09579140627477 L403.73844548253,36.01645473316643 M403.73844548253,36.01645473316643 L403.56731323803797,35.992688862572265 M403.56731323803797,35.992688862572265 L403.41668501850944,36.02588256128581 M403.41668501850944,36.02588256128581 L403.2953137339027,36.114100948612986 M403.2953137339027,36.114100948612986 L403.21025457559557,36.25222190668893 M403.21025457559557,36.25222190668893 L403.16644920237235,36.43221122158519 M403.16644920237235,36.43221122158519 L403.1664436896229,36.6436132444523 M403.1664436896229,36.6436132444523 L403.2102381334456,36.87413998424046 M403.2102381334456,36.87413998424046 L403.2952866961082,37.11039844480513 M403.2952866961082,37.11039844480513 L403.4166480800357,37.338653224307905 M403.4166480800357,37.338653224307905 L403.5672676149412,37.54564251243522 M403.5672676149412,37.54564251243522 L403.7383930549607,37.719332854118875 M403.7383930549607,37.719332854118875 L403.92008021236745,37.84963888362432 M403.92008021236745,37.84963888362432 L404.1017689466151,37.92897771572103 M404.1017689466151,37.92897771572103 L404.2729016634824,37.952748137784795 M404.2729016634824,37.952748137784795 L404.42353140604354,37.919559226920455 M404.42353140604354,37.919559226920455 L404.54490491541304,37.831344766892244 M404.54490491541304,37.831344766892244 L404.6299684208171,37.693227089503694 M404.6299684208171,37.693227089503694 L404.6737773373097,37.51323854348118 M404.6737773373097,37.51323854348118 L404.6737854744299,37.301835003445376 M404.6737854744299,37.301835003445376 L404.62999213484073,37.071304808026696 M404.62999213484073,37.071304808026696 L404.54494220675576,36.8350413430457 M404.54494220675576,36.8350413430457 L404.42357923071245,36.60678227050596 M404.42357923071245,36.60678227050596 L404.27295631155914,36.39978927051226 M404.27295631155914,36.39978927051226 L404.1018264704004,36.22609664860744 M404.1018264704004,36.22609664860744 L403.92013683348523,36.09579140627477 M412.06779320676327,49.70787850053665 L395.962672754035,40.41514426889552 M395.962672754035,40.41514426889552 L395.9406054707173,40.218022209361834 M395.9406054707173,40.218022209361834 L395.8756988149141,40.05781028166524 M395.8756988149141,40.05781028166524 L395.7717255942624,39.943821347086555 M395.7717255942624,39.943821347086555 L395.6347281169909,39.88268161466459 M395.6347281169909,39.88268161466459 L395.47266647501976,39.877941337986044 M395.47266647501976,39.877941337986044 L395.29496092049294,39.92987852772944 M395.29496092049294,39.92987852772944 L395.11193807387644,40.03547398927623 M395.11193807387644,40.03547398927623 L394.9342352966647,40.18859073102186 M394.9342352966647,40.18859073102186 L394.77217925654094,40.380332428263046 M394.77217925654094,40.380332428263046 L394.63519024910073,40.59955121046124 M394.63519024910073,40.59955121046124 L394.5312283197204,40.833511615277075 M394.5312283197204,40.833511615277075 L394.4663355398045,41.06861497612658 M394.4663355398045,41.06861497612658 L394.4442842079156,41.29119468270312 M394.4442842079156,41.29119468270312 L394.46635466725974,41.48831712738149 M394.46635466725974,41.48831712738149 L394.5312650274926,41.64852717658192 M394.5312650274926,41.64852717658192 L394.6352416322886,41.76251239938091 M394.6352416322886,41.76251239938091 L394.7722413981551,41.82364743710548 M394.7722413981551,41.82364743710548 L394.93430370891974,41.828383111577295 M394.93430370891974,41.828383111577295 L395.11200815920085,41.77644246651471 M395.11200815920085,41.77644246651471 L395.2950283815073,41.670845488053374 M395.2950283815073,41.670845488053374 L395.472727615544,41.51772951530535 M395.472727615544,41.51772951530535 L395.634780005307,41.325990696853125 M395.634780005307,41.325990696853125 L395.77176609148034,41.10677624365269 M395.77176609148034,41.10677624365269 L395.87572649790786,40.872820626430155 M395.87572649790786,40.872820626430155 L395.94061950207004,40.6377214149465 M395.94061950207004,40.6377214149465 L395.962672754035,40.41514426889552" stroke="black"  stroke-width="4"  fill="red"/>
<path d="M417.53388960861406,25.05473391190992 L414.6119808781395,26.740479188771587 M417.5144140009182,159.94072507280322 L414.5957503031728,161.62834356007517 M417.53388960861406,25.05473391190992 L417.5144140009182,159.94072507280322 M414.6119808781395,26.740479188771587 L414.5957503031728,161.62834356007517 M534.4264869993744,227.51865162140007 L531.507827903255,229.21002543007103 M417.5144140009182,159.94072507280322 L534.4264869993744,227.51865162140007 M414.5957503031728,161.62834356007517 L531.507827903255,229.21002543007103 M534.5761324262912,92.55773219087274 L531.6542283128215,94.24723279904589 M534.4264869993744,227.51865162140007 L534.5761324262912,92.55773219087274 M531.507827903255,229.21002543007103 L531.6542283128215,94.24723279904589 M534.5761324262912,92.55773219087274 L417.53388960861406,25.05473391190992 M531.6542283128215,94.24723279904589 L414.6119808781395,26.740479188771587" stroke="black"  stroke-width="4"  fill="red"/>
<path d="M385.38801912186057,26.740479188771587 L382.46611039138594,25.05473391190992 M385.40424969682726,161.62834356007517 L382.4855859990818,159.94072507280322 M385.38801912186057,26.740479188771587 L385.40424969682726,161.62834356007517 M382.46611039138594,25.05473391190992 L382.4855859990818,159.94072507280322 M268.492172096745,229.21002543007103 L265.5735130006256,227.51865162140007 M385.40424969682726,161.62834356007517 L268.492172096745,229.21002543007103 M382.4855859990818,159.94072507280322 L265.5735130006256,227.51865162140007 M268.3457716871786,94.24723279904589 L265.4238675737087,92.55773219087274 M268.492172096745,229.21002543007103 L268.3457716871786,94.24723279904589 M265.5735130006256,227.51865162140007 L265.4238675737087,92.55773219087274 M268.3457716871786,94.24723279904589 L385.38801912186057,26.740479188771587 M265.4238675737087,92.55773219087274 L382.46611039138594,25.05473391190992" stroke="black"  stroke-width="4"  fill="red"/>
<path d="M412.06779320676327,49.70787850053665 L412.0457121180816,49.93047563538738 M412.0457121180816,49.93047563538738 L411.98079289536236,50.16560147496028 M411.98079289536236,50.16560147496028 L411.87680941252876,50.39958881175977 M411.87680941252876,50.39958881175977 L411.739804733325,50.618838232600694 M411.739804733325,50.618838232600694 L411.57773931383673,50.810613235274616 M411.57773931383673,50.810613235274616 L411.40003337098926,50.96376450545006 M411.40003337098926,50.96376450545006 L411.2170131504198,51.06939384356269 M411.2170131504198,51.06939384356269 L411.0393154123224,51.12136202978411 M411.0393154123224,51.12136202978411 L410.87726613435916,51.11664747739019 M410.87726613435916,51.11664747739019 L410.7402849641235,51.05552591494086 M410.7402849641235,51.05552591494086 L410.63633143770704,50.94154573730384 M410.63633143770704,50.94154573730384 L410.5714472972631,50.78133200992505 M410.5714472972631,50.78133200992505 L410.5494046750545,50.58419737741593 M410.5494046750545,50.58419737741593 L410.57148384385266,50.36159768170546 M410.57148384385266,50.36159768170546 L410.63640284285896,50.126467691842606 M410.63640284285896,50.126467691842606 L410.74038784939734,49.892475566147255 M410.74038784939734,49.892475566147255 L410.8773954506662,49.67322181492602 M410.8773954506662,49.67322181492602 L411.0394645211771,49.48144393231729 M411.0394645211771,49.48144393231729 L411.2171740075732,49.328291892497646 M411.2171740075732,49.328291892497646 L411.40019685245255,49.2226640713003 M411.40019685245255,49.2226640713003 L411.577895694422,49.17069934104603 M411.577895694422,49.17069934104603 L411.73994430292976,49.17541849679333 M411.73994430292976,49.17541849679333 L411.87692318377236,49.236544755322825 M411.87692318377236,49.236544755322825 L411.9808733252925,49.350528646041425 M411.9808733252925,49.350528646041425 L412.0457537607735,49.51074425283957 M412.0457537607735,49.51074425283957 L412.06779320676327,49.70787850053665 M412.06779320676327,49.70787850053665 L395.962672754035,40.41514426889552 M395.962672754035,40.41514426889552 L395.9406054707173,40.218022209361834 M395.9406054707173,40.218022209361834 L395.8756988149141,40.05781028166524 M395.8756988149141,40.05781028166524 L395.7717255942624,39.943821347086555 M395.7717255942624,39.943821347086555 L395.6347281169909,39.88268161466459 M395.6347281169909,39.88268161466459 L395.47266647501976,39.877941337986044 M395.47266647501976,39.877941337986044 L395.29496092049294,39.92987852772944 M395.29496092049294,39.92987852772944 L395.11193807387644,40.03547398927623 M395.11193807387644,40.03547398927623 L394.9342352966647,40.18859073102186 M394.9342352966647,40.18859073102186 L394.77217925654094,40.380332428263046 M394.77217925654094,40.380332428263046 L394.63519024910073,40.59955121046124 M394.63519024910073,40.59955121046124 L394.5312283197204,40.833511615277075 M394.5312283197204,40.833511615277075 L394.4663355398045,41.06861497612658 M394.4663355398045,41.06861497612658 L394.4442842079156,41.29119468270312 M394.4442842079156,41.29119468270312 L394.46635466725974,41.48831712738149 M394.46635466725974,41.48831712738149 L394.5312650274926,41.64852717658192 M394.5312650274926,41.64852717658192 L394.6352416322886,41.76251239938091 M394.6352416322886,41.76251239938091 L394.7722413981551,41.82364743710548 M394.7722413981551,41.82364743710548 L394.93430370891974,41.828383111577295 M394.93430370891974,41.828383111577295 L395.11200815920085,41.77644246651471 M395.11200815920085,41.77644246651471 L395.2950283815073,41.670845488053374 M395.2950283815073,41.670845488053374 L395.472727615544,41.51772951530535 M395.472727615544,41.51772951530535 L395.634780005307,41.325990696853125 M395.634780005307,41.325990696853125 L395.77176609148034,41.10677624365269 M395.77176609148034,41.10677624365269 L395.87572649790786,40.872820626430155 M395.87572649790786,40.872820626430155 L395.94061950207004,40.6377214149465 M395.94061950207004,40.6377214149465 L395.962672754035,40.41514426889552" stroke="black"  stroke-width="4"  fill="red"/>
<path d="M412.06779320676327,49.70787850053665 L412.0457121180816,49.93047563538738 M412.0457121180816,49.93047563538738 L411.98079289536236,50.16560147496028 M411.98079289536236,50.16560147496028 L411.87680941252876,50.39958881175977 M411.87680941252876,50.39958881175977 L411.739804733325,50.618838232600694 M411.739804733325,50.618838232600694 L411.57773931383673,50.810613235274616 M411.57773931383673,50.810613235274616 L411.40003337098926,50.96376450545006 M411.40003337098926,50.96376450545006 L411.2170131504198,51.06939384356269 M411.2170131504198,51.06939384356269 L411.0393154123224,51.12136202978411 M411.0393154123224,51.12136202978411 L410.87726613435916,51.11664747739019 M410.87726613435916,51.11664747739019 L410.7402849641235,51.05552591494086 M410.7402849641235,51.05552591494086 L410.63633143770704,50.94154573730384 M410.63633143770704,50.94154573730384 L410.5714472972631,50.78133200992505 M410.5714472972631,50.78133200992505 L410.5494046750545,50.58419737741593 M410.5494046750545,50.58419737741593 L411.193966981125,52.336910685995576 M415.10496762426055,50.07964671205531 L415.04807907087735,50.653006532774384 M415.04807907087735,50.653006532774384 L414.8808562377036,51.25862667583135 M414.8808562377036,51.25862667583135 L414.61301586948116,51.86132207296038 M414.61301586948116,51.86132207296038 L414.26012442906483,52.42606173991999 M414.26012442906483,52.42606173991999 L413.8426877419449,52.92002868616947 M413.8426877419449,52.92002868616947 L413.3849650656352,53.31452047506656 M413.3849650656352,53.31452047506656 L412.91355484237545,53.58660855185735 M412.91355484237545,53.58660855185735 L412.4558523011047,53.72047924667248 M412.4558523011047,53.72047924667248 L412.03845609680275,53.708353922633194 M412.03845609680275,53.708353922633194 L411.6856262821215,53.550929107403874 M411.6856262821215,53.550929107403874 L411.41786600743615,53.25735259151327 M411.41786600743615,53.25735259151327 L411.25074191289974,52.84468828414384 M411.25074191289974,52.84468828414384 L411.193966981125,52.336910685995576 M412.06779320676327,49.70787850053665 L415.10496762426055,50.07964671205531 M410.5494046750545,50.58419737741593 L410.57148384385266,50.36159768170546 M410.57148384385266,50.36159768170546 L410.63640284285896,50.126467691842606 M410.63640284285896,50.126467691842606 L410.74038784939734,49.892475566147255 M410.74038784939734,49.892475566147255 L410.8773954506662,49.67322181492602 M410.8773954506662,49.67322181492602 L411.0394645211771,49.48144393231729 M411.0394645211771,49.48144393231729 L411.2171740075732,49.328291892497646 M411.2171740075732,49.328291892497646 L411.40019685245255,49.2226640713003 M411.40019685245255,49.2226640713003 L411.577895694422,49.17069934104603 M411.577895694422,49.17069934104603 L411.73994430292976,49.17541849679333 M411.73994430292976,49.17541849679333 L411.87692318377236,49.236544755322825 M411.87692318377236,49.236544755322825 L411.9808733252925,49.350528646041425 M411.9808733252925,49.350528646041425 L412.0457537607735,49.51074425283957 M412.0457537607735,49.51074425283957 L412.06779320676327,49.70787850053665 M411.193966981125,52.336910685995576 L411.25084210051114,51.7635342768732 M411.25084210051114,51.7635342768732 L411.41806344989953,51.157886598199866 M411.41806344989953,51.157886598199866 L411.6859146243805,50.55515902593777 M411.6859146243805,50.55515902593777 L412.03882475528576,49.99039102966378 M412.03882475528576,49.99039102966378 L412.4562856656985,49.496404975779456 M412.4562856656985,49.496404975779456 L412.91403185207,49.101908080005956 M412.91403185207,49.101908080005956 L413.38545948638443,48.82983006723123 M413.38545948638443,48.82983006723123 L413.8431693510273,48.69598230177246 M413.8431693510273,48.69598230177246 L414.2605611133603,48.708138167536106 M414.2605611133603,48.708138167536106 L414.6133764348929,48.865593738245366 M414.6133764348929,48.865593738245366 L414.8811135551488,49.15919529172379 M414.8811135551488,49.15919529172379 L415.0482130688522,49.571872068721746 M415.0482130688522,49.571872068721746 L415.10496762426055,50.07964671205531" stroke="black"  stroke-width="4"  fill="red"/>
<path d="M387.8144523895795,45.38817890979533 L387.99614540490666,45.51851822914608 M387.99614540490666,45.51851822914608 L388.16728518811124,45.692246855331575 M388.16728518811124,45.692246855331575 L388.317924036208,45.899275694748894 M388.317924036208,45.899275694748894 L388.4393080016537,46.12756835867913 M388.4393080016537,46.12756835867913 L388.52438276025515,46.363861215055465 M388.52438276025515,46.363861215055465 L388.5682033275504,46.59441489306573 M388.5682033275504,46.59441489306573 L388.56822323350394,46.80583464247184 M388.56822323350394,46.80583464247184 L388.524441545399,46.98583118244471 M388.524441545399,46.98583118244471 L388.4394028718989,47.123948174155544 M388.4394028718989,47.123948174155544 L388.3180503540575,47.212153308479685 M388.3180503540575,47.212153308479685 L388.16743654331685,47.24532479597946 M388.16743654331685,47.24532479597946 L387.9963137720851,47.22152986504989 M387.9963137720851,47.22152986504989 L387.8146284204343,47.14216086391144 M387.8146284204343,47.14216086391144 L387.63293788480786,47.01182075759715 M387.63293788480786,47.01182075759715 L387.46180250327586,46.83809441267914 M387.46180250327586,46.83809441267914 L387.3111670401788,46.63106928643026 M387.3111670401788,46.63106928643026 L387.1897846676472,46.4027809167967 M387.1897846676472,46.4027809167967 L387.10471127512994,46.166493066106625 M387.10471127512994,46.166493066106625 L387.06088960397494,45.93594284437495 M387.06088960397494,45.93594284437495 L387.0608670736508,45.724524612138396 M387.0608670736508,45.724524612138396 L387.10464521811264,45.54452730264518 M387.10464521811264,45.54452730264518 L387.1896795438541,45.40640702897798 M387.1896795438541,45.40640702897798 L387.3110298361344,45.3181979660954 M387.3110298361344,45.3181979660954 L387.46164212309054,45.285021689443795 M387.46164212309054,45.285021689443795 L387.6327644214137,45.30881206785625 M387.6327644214137,45.30881206785625 L387.8144523895795,45.38817890979533 M387.8144523895795,45.38817890979533 L403.92013683348523,36.09579140627477 M403.92013683348523,36.09579140627477 L403.73844548253,36.01645473316643 M403.73844548253,36.01645473316643 L403.56731323803797,35.992688862572265 M403.56731323803797,35.992688862572265 L403.41668501850944,36.02588256128581 M403.41668501850944,36.02588256128581 L403.2953137339027,36.114100948612986 M403.2953137339027,36.114100948612986 L403.21025457559557,36.25222190668893 M403.21025457559557,36.25222190668893 L403.16644920237235,36.43221122158519 M403.16644920237235,36.43221122158519 L403.1664436896229,36.6436132444523 M403.1664436896229,36.6436132444523 L403.2102381334456,36.87413998424046 M403.2102381334456,36.87413998424046 L403.2952866961082,37.11039844480513 M403.2952866961082,37.11039844480513 L403.4166480800357,37.338653224307905 M403.4166480800357,37.338653224307905 L403.5672676149412,37.54564251243522 M403.5672676149412,37.54564251243522 L403.7383930549607,37.719332854118875 M403.7383930549607,37.719332854118875 L403.92008021236745,37.84963888362432 M403.92008021236745,37.84963888362432 L404.1017689466151,37.92897771572103 M404.1017689466151,37.92897771572103 L404.2729016634824,37.952748137784795 M404.2729016634824,37.952748137784795 L404.42353140604354,37.919559226920455 M404.42353140604354,37.919559226920455 L404.54490491541304,37.831344766892244 M404.54490491541304,37.831344766892244 L404.6299684208171,37.693227089503694 M404.6299684208171,37.693227089503694 L404.6737773373097,37.51323854348118 M404.6737773373097,37.51323854348118 L404.6737854744299,37.301835003445376 M404.6737854744299,37.301835003445376 L404.62999213484073,37.071304808026696 M404.62999213484073,37.071304808026696 L404.54494220675576,36.8350413430457 M404.54494220675576,36.8350413430457 L404.42357923071245,36.60678227050596 M404.42357923071245,36.60678227050596 L404.27295631155914,36.39978927051226 M404.27295631155914,36.39978927051226 L404.1018264704004,36.22609664860744 M404.1018264704004,36.22609664860744 L403.92013683348523,36.09579140627477" stroke="black"  stroke-width="4"  fill="red"/>
<path d="M387.8144523895795,45.38817890979533 L387.99614540490666,45.51851822914608 M387.99614540490666,45.51851822914608 L388.16728518811124,45.692246855331575 M388.16728518811124,45.692246855331575 L388.317924036208,45.899275694748894 M388.317924036208,45.899275694748894 L388.4393080016537,46.12756835867913 M388.4393080016537,46.12756835867913 L388.52438276025515,46.363861215055465 M388.52438276025515,46.363861215055465 L388.5682033275504,46.59441489306573 M388.5682033275504,46.59441489306573 L388.56822323350394,46.80583464247184 M388.56822323350394,46.80583464247184 L388.524441545399,46.98583118244471 M388.524441545399,46.98583118244471 L388.4394028718989,47.123948174155544 M388.4394028718989,47.123948174155544 L388.3180503540575,47.212153308479685 M388.3180503540575,47.212153308479685 L388.16743654331685,47.24532479597946 M388.16743654331685,47.24532479597946 L387.9963137720851,47.22152986504989 M387.9963137720851,47.22152986504989 L387.8146284204343,47.14216086391144 M387.8146284204343,47.14216086391144 L385.9738512749037,49.586243446217054 M385.97332935302023,45.068376624578036 L386.44133458596434,45.40410278170066 M386.44133458596434,45.40410278170066 L386.88215869672234,45.85160602090298 M386.88215869672234,45.85160602090298 L387.27017987463347,46.38487969823899 M387.27017987463347,46.38487969823899 L387.58284710852394,46.972925714355085 M387.58284710852394,46.972925714355085 L387.80198633873243,47.58157075436395 M387.80198633873243,47.58157075436395 L387.9148633378152,48.175438515233964 M387.9148633378152,48.175438515233964 L387.9149175424979,48.72001219186535 M387.9149175424979,48.72001219186535 L387.80214729129807,49.183643811263835 M387.80214729129807,49.183643811263835 L387.5831095795754,49.539389188173175 M387.5831095795754,49.539389188173175 L387.27053442548413,49.766571878999116 M387.27053442548413,49.766571878999116 L386.8825908971286,49.851997690761664 M386.8825908971286,49.851997690761664 L386.44182443617774,49.79069914811589 M386.44182443617774,49.79069914811589 L385.9738512749037,49.586243446217054 M387.8144523895795,45.38817890979533 L385.97332935302023,45.068376624578036 M387.8146284204343,47.14216086391144 L387.63293788480786,47.01182075759715 M387.63293788480786,47.01182075759715 L387.46180250327586,46.83809441267914 M387.46180250327586,46.83809441267914 L387.3111670401788,46.63106928643026 M387.3111670401788,46.63106928643026 L387.1897846676472,46.4027809167967 M387.1897846676472,46.4027809167967 L387.10471127512994,46.166493066106625 M387.10471127512994,46.166493066106625 L387.06088960397494,45.93594284437495 M387.06088960397494,45.93594284437495 L387.0608670736508,45.724524612138396 M387.0608670736508,45.724524612138396 L387.10464521811264,45.54452730264518 M387.10464521811264,45.54452730264518 L387.1896795438541,45.40640702897798 M387.1896795438541,45.40640702897798 L387.3110298361344,45.3181979660954 M387.3110298361344,45.3181979660954 L387.46164212309054,45.285021689443795 M387.46164212309054,45.285021689443795 L387.6327644214137,45.30881206785625 M387.6327644214137,45.30881206785625 L387.8144523895795,45.38817890979533 M385.9738512749037,49.586243446217054 L385.5058671154128,49.250514734949206 M385.5058671154128,49.250514734949206 L385.06506758634254,48.80302396488787 M385.06506758634254,48.80302396488787 L384.6770681703242,48.26977452156018 M384.6770681703242,48.26977452156018 L384.3644168234901,47.681760066277775 M384.3644168234901,47.681760066277775 L384.14528133898585,47.073145168027054 M384.14528133898585,47.073145168027054 L384.0323977130811,46.47930074058678 M384.0323977130811,46.47930074058678 L384.0323260969504,45.93473712965266 M384.0323260969504,45.93473712965266 L384.14507214078316,45.471100002315495 M384.14507214078316,45.471100002315495 L384.36408632510086,45.11533591960733 M384.36408632510086,45.11533591960733 L384.67664139479064,44.88812409446649 M384.67664139479064,44.88812409446649 L385.0645755095776,44.80266691003072 M385.0645755095776,44.80266691003072 L385.50534345418504,44.863937914951634 M385.50534345418504,44.863937914951634 L385.97332935302023,45.068376624578036" stroke="black"  stroke-width="4"  fill="red"/></svg>