<svg viewBox="0 0 800 800" xmlns="http://www.w3.org/2000/svg"><path d="M400,270.39314731913566 L329.6244219372343,311.02450625804886 M400,270.39314731913566 L400,148.48552219998203 M329.6009503714546,189.10332681166665 L400,148.48552219998203 M329.6244219372343,311.02450625804886 L329.6009503714546,189.10332681166665 M400,270.39314731913566 L470.37557806276567,311.024506258049 M461.5803417501786,316.1046961728918 L470.37557806276567,311.024506258049 M452.7816835470742,311.024506258049 L461.5803417501786,316.1046961728918 M443.98595839298474,316.1046961728918 L452.7816835470742,311.024506258049 M443.98595839298474,316.1046961728918 L452.7846166775853,321.1851683989275 M417.5968279722327,341.5098808857003 L452.7846166775853,321.1851683989275 M400,331.3469598787125 L417.5968279722327,341.5098808857003 M382.4031720277673,341.5098808857003 L400,331.3469598787125 M347.21538332241465,321.1851683989275 L382.4031720277673,341.5098808857003 M356.01404160701526,316.1046961728918 L347.21538332241465,321.1851683989275 M347.2183164529257,311.02450625804886 L356.01404160701526,316.1046961728918 M347.2183164529257,311.02450625804886 L338.41965824982134,316.1046961728918 M329.6244219372343,311.02450625804886 L338.41965824982134,316.1046961728918 M470.37557806276567,311.024506258049 L470.39904962854536,189.10332681166665 M470.39904962854536,189.10332681166665 L400,148.48552219998203 M461.60088051170624,194.1818224353823 L470.39904962854536,189.10332681166665 M329.6009503714546,189.10332681166665 L338.3991194882937,194.1818224353823 M338.3991194882937,194.1818224353823 L347.20071277859097,189.10332681166665 M347.20071277859097,189.10332681166665 L400,158.63828028596276 M400,158.63828028596276 L452.7992872214089,189.10332681166665 M452.7992872214089,189.10332681166665 L461.60088051170624,194.1818224353823 M338.41965824982134,316.1046961728918 L338.3991194882937,194.1818224353823 M461.5803417501786,316.1046961728918 L461.60088051170624,194.1818224353823 M452.7992872214089,189.10332681166665 L452.7816835470742,311.024506258049 M452.8110295292531,107.77734937302569 L452.7992872214089,189.10332681166665 M444.0104147374805,112.85471358498046 L443.98595839298474,316.1046961728918 M452.8110295292531,107.77734937302569 L444.0104147374805,112.85471358498046 M452.81396592233233,117.93236010798398 L444.0104147374805,112.85471358498046 M452.7846166775853,321.1851683989275 L452.81396592233233,117.93236010798398 M417.5968279722327,341.5098808857003 L417.6066132294045,138.24576978144893 M417.6066132294045,138.24576978144893 L452.81396592233233,117.93236010798398 M441.095301148819,185.6903646445279 L440.92397104969945,187.41730428928952 M440.92397104969945,187.41730428928952 L440.42031030521497,189.24141477396125 M440.42031030521497,189.24141477396125 L439.6135849123088,191.05671968306774 M439.6135849123088,191.05671968306774 L438.55068048760666,192.7577064842963 M438.55068048760666,192.7577064842963 L437.2933603104373,194.24553092965175 M437.2933603104373,194.24553092965175 L435.9146933153876,195.43374151213686 M435.9146933153876,195.43374151213686 L434.49479437598404,196.25327734864925 M434.49479437598404,196.25327734864925 L433.1161764829121,196.65650849598842 M433.1161764829121,196.65650849598842 L431.8589640923962,196.6200001929954 M431.8589640923962,196.6200001929954 L430.79621701078315,196.14585674088283 M430.79621701078315,196.14585674088283 L429.98970037388347,195.26162534340085 M429.98970037388347,195.26162534340085 L429.4863001226941,194.01870248123652 M429.4863001226941,194.01870248123652 L429.315273067022,192.48929807035483 M429.315273067022,192.48929807035483 L429.48656270120335,190.76230846173974 M429.48656270120335,190.76230846173974 L429.9902189753991,188.93811503975866 M429.9902189753991,188.93811503975866 L430.79697691649903,187.12271321867547 M430.79697691649903,187.12271321867547 L431.85993973582816,185.42163987778548 M431.85993973582816,185.42163987778548 L433.11732867848247,183.93376030124995 M433.11732867848247,183.93376030124995 L434.4960685859311,182.74553312501405 M434.4960685859311,182.74553312501405 L435.91601996930854,181.92602760071884 M435.91601996930854,181.92602760071884 L437.29465782368135,181.52286672742082 M437.29465782368135,181.52286672742082 L438.55186103205506,181.5594646003118 M438.55186103205506,181.5594646003118 L439.6145623619474,182.033701899589 M439.6145623619474,182.033701899589 L440.42100925663107,182.91800871118653 M440.42100925663107,182.91800871118653 L440.9243354686684,184.16096913280205 M440.9243354686684,184.16096913280205 L441.095301148819,185.6903646445279 M400,331.3469598787125 L400,128.08850018132466 M400,128.08850018132466 L417.6066132294045,138.24576978144893 M382.4031720277673,341.5098808857003 L382.3933867705954,138.24576978144893 M382.3933867705954,138.24576978144893 L400,128.08850018132466 M347.21538332241465,321.1851683989275 L347.18603407766756,117.93236010798387 M347.18603407766756,117.93236010798387 L382.3933867705954,138.24576978144893 M364.7919919028264,161.95391062715544 L366.2016938228394,162.96513420349936 M366.2016938228394,162.96513420349936 L367.52951241632144,164.31303761078834 M367.52951241632144,164.31303761078834 L368.6982776857933,165.91929102550648 M368.6982776857933,165.91929102550648 L369.64005507325965,167.69054999797538 M369.64005507325965,167.69054999797538 L370.3001133022697,169.52386791907452 M370.3001133022697,169.52386791907452 L370.6400859983683,171.3126523313244 M370.6400859983683,171.3126523313244 L370.6402176918617,172.9529949051896 M370.6402176918617,172.9529949051896 L370.3005052105504,174.3495286909407 M370.3005052105504,174.3495286909407 L369.6406968472218,175.42110069703813 M369.6406968472218,175.42110069703813 L368.6991495455731,176.10543549960033 M368.6991495455731,176.10543549960033 L367.53058229206,176.36278268805768 M367.53058229206,176.36278268805768 L366.2029149559986,176.17818240563287 M366.2029149559986,176.17818240563287 L364.7933020328597,175.56237368522056 M364.7933020328597,175.56237368522056 L363.38366359438123,174.55115210892234 M363.38366359438123,174.55115210892234 L362.055916950273,173.20328504927733 M362.055916950273,173.20328504927733 L360.8872214295063,171.59709735875919 M360.8872214295063,171.59709735875919 L359.94548770160293,169.82594072914793 M359.94548770160293,169.82594072914793 L359.28544495183024,167.99272572100108 M359.28544495183024,167.99272572100108 L358.9454522904475,166.20399220533278 M358.9454522904475,166.20399220533278 L358.9452681468107,164.56367995398853 M358.9452681468107,164.56367995398853 L359.2849077098265,163.16714896958888 M359.2849077098265,163.16714896958888 L359.94464100378195,162.0955085008386 M359.94464100378195,162.0955085008386 L360.88613200169385,161.41107866527915 M360.88613200169385,161.41107866527915 L362.05466670451204,161.15364424767688 M362.05466670451204,161.15364424767688 L363.3823406097421,161.33816278925195 M363.3823406097421,161.33816278925195 L364.7919919028264,161.95391062715544 M347.18603407766756,117.93236010798387 L355.98958526251937,112.85471358498035 M355.98958526251937,112.85471358498035 L356.01404160701526,316.1046961728918 M347.20071277859097,189.10332681166665 L347.2183164529257,311.02450625804886 M347.18897047074677,107.77734937302569 L347.20071277859097,189.10332681166665 M355.98958526251937,112.85471358498035 L347.18897047074677,107.77734937302569 M400,158.63828028596276 L400,77.31909131506387 M347.18897047074677,107.77734937302569 L400,77.31909131506387 M400,77.31909131506387 L452.8110295292531,107.77734937302569 M431.94741280771626,184.57058984299255 L431.88091164370206,185.24104459601244 M431.88091164370206,185.24104459601244 L431.6853805468466,185.94923687480855 M431.6853805468466,185.94923687480855 L431.3721860997937,186.6540014427668 M431.3721860997937,186.6540014427668 L430.95952978946826,187.31437717489274 M430.95952978946826,187.31437717489274 L430.47138840606186,187.89200193117148 M430.47138840606186,187.89200193117148 L429.93613566261905,188.35329406713038 M429.93613566261905,188.35329406713038 L429.38487435302306,188.67145217599153 M429.38487435302306,188.67145217599153 L428.84964055681496,188.82798599082116 M428.84964055681496,188.82798599082116 L428.36154486643056,188.8137893914154 M428.36154486643056,188.8137893914154 L427.9489450069897,188.62970099683707 M427.9489450069897,188.62970099683707 L427.63583027518285,188.28639966997656 M427.63583027518285,188.28639966997656 L427.4403905176212,187.80384447636055 M427.4403905176212,187.80384447636055 L427.37398790394764,187.21008460435758 M427.37398790394764,187.21008460435758 L427.4404853832153,186.53962092713897 M427.4404853832153,186.53962092713897 L427.63601580607747,185.83141614766436 M427.63601580607747,185.83141614766436 L427.94921274428333,185.12663836642236 M427.94921274428333,185.12663836642236 L428.3618820523717,184.46624716919433 M428.3618820523717,184.46624716919433 L428.8500302364725,183.88861616027862 M428.8500302364725,183.88861616027862 L429.38529575156053,183.42732049508874 M429.38529575156053,183.42732049508874 L429.936564965861,183.1091669550862 M429.936564965861,183.1091669550862 L430.4717999889843,182.95264476054825 M430.4717999889843,182.95264476054825 L430.9598978594226,182.96685280339466 M430.9598978594226,182.96685280339466 L431.37248662682174,183.15095776456758 M431.37248662682174,183.15095776456758 L431.685593261346,183.49426906441175 M431.685593261346,183.49426906441175 L431.88102185930563,183.97682991897892 M431.88102185930563,183.97682991897892 L431.94741280771626,184.57058984299255 M431.94741280771626,184.57058984299255 L434.99669576359645,184.94384698879782 M434.99669576359645,184.94384698879782 L438.04599327601693,185.31710444869088 M438.04599327601693,185.31710444869088 L441.095301148819,185.6903646445279 M370.33741874446645,162.9173799689118 L370.884705341158,163.30994520737846 M370.884705341158,163.30994520737846 L371.4001989696032,163.83323396487322 M371.4001989696032,163.83323396487322 L371.85394212102284,164.45683187811073 M371.85394212102284,164.45683187811073 L372.21956063055876,165.14446138198866 M372.21956063055876,165.14446138198866 L372.47580839178994,165.8561917580438 M372.47580839178994,165.8561917580438 L372.6077888644209,166.55065668986379 M372.6077888644209,166.55065668986379 L372.60783656430414,167.1874828540158 M372.60783656430414,167.1874828540158 L372.4759493953512,167.72966289517365 M372.4759493953512,167.72966289517365 L372.2197886159571,168.14569819961775 M372.2197886159571,168.14569819961775 L371.85424647777415,168.41139509752207 M371.85424647777415,168.41139509752207 L371.40056481509475,168.51132421028052 M371.40056481509475,168.51132421028052 L370.8851137361886,168.43966662723142 M370.8851137361886,168.43966662723142 L370.3378472669582,168.20061179929542 M370.3378472669582,168.20061179929542 L369.79057023683265,167.80802601016268 M369.79057023683265,167.80802601016268 L369.2750856716838,167.28475139774167 M369.2750856716838,167.28475139774167 L368.8213548158886,166.66117557561824 M368.8213548158886,166.66117557561824 L368.4557432021196,165.9735505228001 M368.4557432021196,165.9735505228001 L368.19949745662177,165.2618243189488 M368.19949745662177,165.2618243189488 L368.0675115609964,164.56737828301175 M368.0675115609964,164.56737828301175 L368.06745595552627,163.93055668924399 M368.06745595552627,163.93055668924399 L368.1993345473318,163.38836584597618 M368.1993345473318,163.38836584597618 L368.45548432919924,162.9723315618898 M368.45548432919924,162.9723315618898 L368.8210176659081,162.70663131465466 M368.8210176659081,162.70663131465466 L369.27469263958903,162.606676869475 M369.27469263958903,162.606676869475 L369.7901464900858,162.67831346545626 M369.7901464900858,162.67831346545626 L370.33741874446645,162.9173799689118 M370.33741874446645,162.9173799689118 L368.48897873647286,162.59622324429512 M368.48897873647286,162.59622324429512 L366.6405031240824,162.27507972451497 M366.6405031240824,162.27507972451497 L364.7919919028264,161.95391062715544 M431.94741280771626,184.57058984299255 L383.4397507016398,156.58065072364928 M383.4397507016398,156.58065072364928 L383.37327590914094,155.98692750916905 M383.37327590914094,155.98692750916905 L383.17776833796705,155.50437773439734 M383.17776833796705,155.50437773439734 L382.8645921918087,155.1610512404411 M382.8645921918087,155.1610512404411 L382.45194741483175,154.9769056936678 M382.45194741483175,154.9769056936678 L381.96381029045784,154.9626340322393 M381.96381029045784,154.9626340322393 L381.42855505179085,155.11907327245638 M381.42855505179085,155.11907327245638 L380.8772858346058,155.43712934305813 M380.8772858346058,155.43712934305813 L380.34204052945995,155.89831868823774 M380.34204052945995,155.89831868823774 L379.8539315941864,156.47584070612783 M379.8539315941864,156.47584070612783 L379.44131829135773,157.13612657495906 M379.44131829135773,157.13612657495906 L379.1281908615088,157.84080881286502 M379.1281908615088,157.84080881286502 L378.9327394098153,158.54893338589648 M378.9327394098153,158.54893338589648 L378.86632577394073,159.21933685617353 M378.86632577394073,159.21933685617353 L378.932812231123,159.8130600200157 M378.932812231123,159.8130600200157 L379.1283309602929,160.2956041366167 M379.1283309602929,160.2956041366167 L379.4415152014691,160.63892066114 M379.4415152014691,160.63892066114 L379.85417106808336,160.82304964622585 M379.85417106808336,160.82304964622585 L380.34230601040986,160.83730986692552 M380.34230601040986,160.83730986692552 L380.87756002103595,160.68085900873928 M380.87756002103595,160.68085900873928 L381.42882133351645,160.36279836928117 M381.42882133351645,160.36279836928117 L381.9640538681425,159.90161255101395 M381.9640538681425,159.90161255101395 L382.45215600471494,159.3240967830514 M382.45215600471494,159.3240967830514 L382.86475631218514,158.6638263744161 M382.86475631218514,158.6638263744161 L383.1778812531458,157.95915734624128 M383.1778812531458,157.95915734624128 L383.37333338043896,157.25104527110472 M383.37333338043896,157.25104527110472 L383.4397507016398,156.58065072364928 M370.33741874446645,162.9173799689118 L418.8481280126976,134.9287978680493 M418.8481280126976,134.9287978680493 L418.30084557529096,134.6898222378959 M418.30084557529096,134.6898222378959 L417.7853617680874,134.61825946081638 M417.7853617680874,134.61825946081638 L417.33163880558556,134.71826638018507 M417.33163880558556,134.71826638018507 L416.96604224150303,134.98399471067705 M416.96604224150303,134.98399471067705 L416.70981766430185,135.40003105308568 M416.70981766430185,135.40003105308568 L416.5778570561447,135.94219781001038 M416.5778570561447,135.94219781001038 L416.57782819285364,136.5789705739823 M416.57782819285364,136.5789705739823 L416.70973207591993,137.2733458742465 M416.70973207591993,137.2733458742465 L416.9659030294733,137.98498354619414 M416.9659030294733,137.98498354619414 L417.3314514208135,138.6725074175107 M417.3314514208135,138.6725074175107 L417.7851342960877,139.29597528737838 M417.7851342960877,139.29597528737838 L418.30058891281703,139.8191414508724 M418.30058891281703,139.8191414508724 L418.8478557636523,140.2116245956297 M418.8478557636523,140.2116245956297 L419.3951324179008,140.45058855074353 M419.3951324179008,140.45058855074353 L419.9106134506213,140.52217231173415 M419.9106134506213,140.52217231173415 L420.36434309857043,140.42219071974807 M420.36434309857043,140.42219071974807 L420.7299484630083,140.15646573516523 M420.7299484630083,140.15646573516523 L420.9861840370284,139.74042836969073 M420.9861840370284,139.74042836969073 L421.11815321992134,139.19827241255587 M421.11815321992134,139.19827241255587 L421.1181899887994,138.56149507820237 M421.1181899887994,138.56149507820237 L420.9862915311393,137.86710088438008 M420.9862915311393,137.86710088438008 L420.73011856256045,137.15545904293998 M420.73011856256045,137.15545904293998 L420.36456327657214,136.4679307239859 M420.36456327657214,136.4679307239859 L419.9108681092247,135.84444076804084 M419.9108681092247,135.84444076804084 L419.39540443209125,135.3212604626259 M419.39540443209125,135.3212604626259 L418.8481280126976,134.9287978680493" stroke="black"  stroke-width="4"  fill="red"/>
<path d="M452.8110295292531,107.77734937302569 L444.0104147374805,112.85471358498046 M452.75237016067683,514.0459082203964 L443.96152921390444,519.1289144303621 M452.8110295292531,107.77734937302569 L452.75237016067683,514.0459082203964 M444.0104147374805,112.85471358498046 L443.96152921390444,519.1289144303621 M804.8845597242747,717.5865916709382 L796.0937326373252,722.6809086849362 M452.75237016067683,514.0459082203964 L804.8845597242747,717.5865916709382 M443.96152921390444,519.1289144303621 L796.0937326373252,722.6809086849362 M805.3352828231551,311.09235334522293 L796.5346819375254,316.18102839106626 M804.8845597242747,717.5865916709382 L805.3352828231551,311.09235334522293 M796.0937326373252,722.6809086849362 L796.5346819375254,316.18102839106626 M805.3352828231551,311.09235334522293 L452.8110295292531,107.77734937302569 M796.5346819375254,316.18102839106626 L444.0104147374805,112.85471358498046" stroke="black"  stroke-width="4"  fill="red"/>
<path d="M355.98958526251937,112.85471358498035 L347.18897047074677,107.77734937302569 M356.03847078609556,519.1289144303621 L347.2476298393231,514.0459082203964 M355.98958526251937,112.85471358498035 L356.03847078609556,519.1289144303621 M347.18897047074677,107.77734937302569 L347.2476298393231,514.0459082203964 M3.9062673626747824,722.6809086849361 L-4.884559724274709,717.5865916709382 M356.03847078609556,519.1289144303621 L3.9062673626747824,722.6809086849361 M347.2476298393231,514.0459082203964 L-4.884559724274709,717.5865916709382 M3.46531806247458,316.18102839106626 L-5.335282823155126,311.09235334522293 M3.9062673626747824,722.6809086849361 L3.46531806247458,316.18102839106626 M-4.884559724274709,717.5865916709382 L-5.335282823155126,311.09235334522293 M3.46531806247458,316.18102839106626 L355.98958526251937,112.85471358498035 M-5.335282823155126,311.09235334522293 L347.18897047074677,107.77734937302569" stroke="black"  stroke-width="4"  fill="red"/>
<path d="M431.94741280771626,184.57058984299255 L431.88091164370206,185.24104459601244 M431.88091164370206,185.24104459601244 L431.6853805468466,185.94923687480855 M431.6853805468466,185.94923687480855 L431.3721860997937,186.6540014427668 M431.3721860997937,186.6540014427668 L430.95952978946826,187.31437717489274 M430.95952978946826,187.31437717489274 L430.47138840606186,187.89200193117148 M430.47138840606186,187.89200193117148 L429.93613566261905,188.35329406713038 M429.93613566261905,188.35329406713038 L429.38487435302306,188.67145217599153 M429.38487435302306,188.67145217599153 L428.84964055681496,188.82798599082116 M428.84964055681496,188.82798599082116 L428.36154486643056,188.8137893914154 M428.36154486643056,188.8137893914154 L427.9489450069897,188.62970099683707 M427.9489450069897,188.62970099683707 L427.63583027518285,188.28639966997656 M427.63583027518285,188.28639966997656 L427.4403905176212,187.80384447636055 M427.4403905176212,187.80384447636055 L427.37398790394764,187.21008460435758 M427.37398790394764,187.21008460435758 L427.4404853832153,186.53962092713897 M427.4404853832153,186.53962092713897 L427.63601580607747,185.83141614766436 M427.63601580607747,185.83141614766436 L427.94921274428333,185.12663836642236 M427.94921274428333,185.12663836642236 L428.3618820523717,184.46624716919433 M428.3618820523717,184.46624716919433 L428.8500302364725,183.88861616027862 M428.8500302364725,183.88861616027862 L429.38529575156053,183.42732049508874 M429.38529575156053,183.42732049508874 L429.936564965861,183.1091669550862 M429.936564965861,183.1091669550862 L430.4717999889843,182.95264476054825 M430.4717999889843,182.95264476054825 L430.9598978594226,182.96685280339466 M430.9598978594226,182.96685280339466 L431.37248662682174,183.15095776456758 M431.37248662682174,183.15095776456758 L431.685593261346,183.49426906441175 M431.685593261346,183.49426906441175 L431.88102185930563,183.97682991897892 M431.88102185930563,183.97682991897892 L431.94741280771626,184.57058984299255 M431.94741280771626,184.57058984299255 L383.4397507016398,156.58065072364928 M383.4397507016398,156.58065072364928 L383.37327590914094,155.98692750916905 M383.37327590914094,155.98692750916905 L383.17776833796705,155.50437773439734 M383.17776833796705,155.50437773439734 L382.8645921918087,155.1610512404411 M382.8645921918087,155.1610512404411 L382.45194741483175,154.9769056936678 M382.45194741483175,154.9769056936678 L381.96381029045784,154.9626340322393 M381.96381029045784,154.9626340322393 L381.42855505179085,155.11907327245638 M381.42855505179085,155.11907327245638 L380.8772858346058,155.43712934305813 M380.8772858346058,155.43712934305813 L380.34204052945995,155.89831868823774 M380.34204052945995,155.89831868823774 L379.8539315941864,156.47584070612783 M379.8539315941864,156.47584070612783 L379.44131829135773,157.13612657495906 M379.44131829135773,157.13612657495906 L379.1281908615088,157.84080881286502 M379.1281908615088,157.84080881286502 L378.9327394098153,158.54893338589648 M378.9327394098153,158.54893338589648 L378.86632577394073,159.21933685617353 M378.86632577394073,159.21933685617353 L378.932812231123,159.8130600200157 M378.932812231123,159.8130600200157 L379.1283309602929,160.2956041366167 M379.1283309602929,160.2956041366167 L379.4415152014691,160.63892066114 M379.4415152014691,160.63892066114 L379.85417106808336,160.82304964622585 M379.85417106808336,160.82304964622585 L380.34230601040986,160.83730986692552 M380.34230601040986,160.83730986692552 L380.87756002103595,160.68085900873928 M380.87756002103595,160.68085900873928 L381.42882133351645,160.36279836928117 M381.42882133351645,160.36279836928117 L381.9640538681425,159.90161255101395 M381.9640538681425,159.90161255101395 L382.45215600471494,159.3240967830514 M382.45215600471494,159.3240967830514 L382.86475631218514,158.6638263744161 M382.86475631218514,158.6638263744161 L383.1778812531458,157.95915734624128 M383.1778812531458,157.95915734624128 L383.37333338043896,157.25104527110472 M383.37333338043896,157.25104527110472 L383.4397507016398,156.58065072364928" stroke="black"  stroke-width="4"  fill="red"/>
<path d="M431.94741280771626,184.57058984299255 L431.88091164370206,185.24104459601244 M431.88091164370206,185.24104459601244 L431.6853805468466,185.94923687480855 M431.6853805468466,185.94923687480855 L431.3721860997937,186.6540014427668 M431.3721860997937,186.6540014427668 L430.95952978946826,187.31437717489274 M430.95952978946826,187.31437717489274 L430.47138840606186,187.89200193117148 M430.47138840606186,187.89200193117148 L429.93613566261905,188.35329406713038 M429.93613566261905,188.35329406713038 L429.38487435302306,188.67145217599153 M429.38487435302306,188.67145217599153 L428.84964055681496,188.82798599082116 M428.84964055681496,188.82798599082116 L428.36154486643056,188.8137893914154 M428.36154486643056,188.8137893914154 L427.9489450069897,188.62970099683707 M427.9489450069897,188.62970099683707 L427.63583027518285,188.28639966997656 M427.63583027518285,188.28639966997656 L427.4403905176212,187.80384447636055 M427.4403905176212,187.80384447636055 L427.37398790394764,187.21008460435758 M427.37398790394764,187.21008460435758 L429.315273067022,192.48929807035483 M441.095301148819,185.6903646445279 L440.92397104969945,187.41730428928952 M440.92397104969945,187.41730428928952 L440.42031030521497,189.24141477396125 M440.42031030521497,189.24141477396125 L439.6135849123088,191.05671968306774 M439.6135849123088,191.05671968306774 L438.55068048760666,192.7577064842963 M438.55068048760666,192.7577064842963 L437.2933603104373,194.24553092965175 M437.2933603104373,194.24553092965175 L435.9146933153876,195.43374151213686 M435.9146933153876,195.43374151213686 L434.49479437598404,196.25327734864925 M434.49479437598404,196.25327734864925 L433.1161764829121,196.65650849598842 M433.1161764829121,196.65650849598842 L431.8589640923962,196.6200001929954 M431.8589640923962,196.6200001929954 L430.79621701078315,196.14585674088283 M430.79621701078315,196.14585674088283 L429.98970037388347,195.26162534340085 M429.98970037388347,195.26162534340085 L429.4863001226941,194.01870248123652 M429.4863001226941,194.01870248123652 L429.315273067022,192.48929807035483 M431.94741280771626,184.57058984299255 L441.095301148819,185.6903646445279 M427.37398790394764,187.21008460435758 L427.4404853832153,186.53962092713897 M427.4404853832153,186.53962092713897 L427.63601580607747,185.83141614766436 M427.63601580607747,185.83141614766436 L427.94921274428333,185.12663836642236 M427.94921274428333,185.12663836642236 L428.3618820523717,184.46624716919433 M428.3618820523717,184.46624716919433 L428.8500302364725,183.88861616027862 M428.8500302364725,183.88861616027862 L429.38529575156053,183.42732049508874 M429.38529575156053,183.42732049508874 L429.936564965861,183.1091669550862 M429.936564965861,183.1091669550862 L430.4717999889843,182.95264476054825 M430.4717999889843,182.95264476054825 L430.9598978594226,182.96685280339466 M430.9598978594226,182.96685280339466 L431.37248662682174,183.15095776456758 M431.37248662682174,183.15095776456758 L431.685593261346,183.49426906441175 M431.685593261346,183.49426906441175 L431.88102185930563,183.97682991897892 M431.88102185930563,183.97682991897892 L431.94741280771626,184.57058984299255 M429.315273067022,192.48929807035483 L429.48656270120335,190.76230846173974 M429.48656270120335,190.76230846173974 L429.9902189753991,188.93811503975866 M429.9902189753991,188.93811503975866 L430.79697691649903,187.12271321867547 M430.79697691649903,187.12271321867547 L431.85993973582816,185.42163987778548 M431.85993973582816,185.42163987778548 L433.11732867848247,183.93376030124995 M433.11732867848247,183.93376030124995 L434.4960685859311,182.74553312501405 M434.4960685859311,182.74553312501405 L435.91601996930854,181.92602760071884 M435.91601996930854,181.92602760071884 L437.29465782368135,181.52286672742082 M437.29465782368135,181.52286672742082 L438.55186103205506,181.5594646003118 M438.55186103205506,181.5594646003118 L439.6145623619474,182.033701899589 M439.6145623619474,182.033701899589 L440.42100925663107,182.91800871118653 M440.42100925663107,182.91800871118653 L440.9243354686684,184.16096913280205 M440.9243354686684,184.16096913280205 L441.095301148819,185.6903646445279" stroke="black"  stroke-width="4"  fill="red"/>
<path d="M370.33741874446645,162.9173799689118 L370.884705341158,163.30994520737846 M370.884705341158,163.30994520737846 L371.4001989696032,163.83323396487322 M371.4001989696032,163.83323396487322 L371.85394212102284,164.45683187811073 M371.85394212102284,164.45683187811073 L372.21956063055876,165.14446138198866 M372.21956063055876,165.14446138198866 L372.47580839178994,165.8561917580438 M372.47580839178994,165.8561917580438 L372.6077888644209,166.55065668986379 M372.6077888644209,166.55065668986379 L372.60783656430414,167.1874828540158 M372.60783656430414,167.1874828540158 L372.4759493953512,167.72966289517365 M372.4759493953512,167.72966289517365 L372.2197886159571,168.14569819961775 M372.2197886159571,168.14569819961775 L371.85424647777415,168.41139509752207 M371.85424647777415,168.41139509752207 L371.40056481509475,168.51132421028052 M371.40056481509475,168.51132421028052 L370.8851137361886,168.43966662723142 M370.8851137361886,168.43966662723142 L370.3378472669582,168.20061179929542 M370.3378472669582,168.20061179929542 L369.79057023683265,167.80802601016268 M369.79057023683265,167.80802601016268 L369.2750856716838,167.28475139774167 M369.2750856716838,167.28475139774167 L368.8213548158886,166.66117557561824 M368.8213548158886,166.66117557561824 L368.4557432021196,165.9735505228001 M368.4557432021196,165.9735505228001 L368.19949745662177,165.2618243189488 M368.19949745662177,165.2618243189488 L368.0675115609964,164.56737828301175 M368.0675115609964,164.56737828301175 L368.06745595552627,163.93055668924399 M368.06745595552627,163.93055668924399 L368.1993345473318,163.38836584597618 M368.1993345473318,163.38836584597618 L368.45548432919924,162.9723315618898 M368.45548432919924,162.9723315618898 L368.8210176659081,162.70663131465466 M368.8210176659081,162.70663131465466 L369.27469263958903,162.606676869475 M369.27469263958903,162.606676869475 L369.7901464900858,162.67831346545626 M369.7901464900858,162.67831346545626 L370.33741874446645,162.9173799689118 M370.33741874446645,162.9173799689118 L418.8481280126976,134.9287978680493 M418.8481280126976,134.9287978680493 L418.30084557529096,134.6898222378959 M418.30084557529096,134.6898222378959 L417.7853617680874,134.61825946081638 M417.7853617680874,134.61825946081638 L417.33163880558556,134.71826638018507 M417.33163880558556,134.71826638018507 L416.96604224150303,134.98399471067705 M416.96604224150303,134.98399471067705 L416.70981766430185,135.40003105308568 M416.70981766430185,135.40003105308568 L416.5778570561447,135.94219781001038 M416.5778570561447,135.94219781001038 L416.57782819285364,136.5789705739823 M416.57782819285364,136.5789705739823 L416.70973207591993,137.2733458742465 M416.70973207591993,137.2733458742465 L416.9659030294733,137.98498354619414 M416.9659030294733,137.98498354619414 L417.3314514208135,138.6725074175107 M417.3314514208135,138.6725074175107 L417.7851342960877,139.29597528737838 M417.7851342960877,139.29597528737838 L418.30058891281703,139.8191414508724 M418.30058891281703,139.8191414508724 L418.8478557636523,140.2116245956297 M418.8478557636523,140.2116245956297 L419.3951324179008,140.45058855074353 M419.3951324179008,140.45058855074353 L419.9106134506213,140.52217231173415 M419.9106134506213,140.52217231173415 L420.36434309857043,140.42219071974807 M420.36434309857043,140.42219071974807 L420.7299484630083,140.15646573516523 M420.7299484630083,140.15646573516523 L420.9861840370284,139.74042836969073 M420.9861840370284,139.74042836969073 L421.11815321992134,139.19827241255587 M421.11815321992134,139.19827241255587 L421.1181899887994,138.56149507820237 M421.1181899887994,138.56149507820237 L420.9862915311393,137.86710088438008 M420.9862915311393,137.86710088438008 L420.73011856256045,137.15545904293998 M420.73011856256045,137.15545904293998 L420.36456327657214,136.4679307239859 M420.36456327657214,136.4679307239859 L419.9108681092247,135.84444076804084 M419.9108681092247,135.84444076804084 L419.39540443209125,135.3212604626259 M419.39540443209125,135.3212604626259 L418.8481280126976,134.9287978680493" stroke="black"  stroke-width="4"  fill="red"/>
<path d="M370.33741874446645,162.9173799689118 L370.884705341158,163.30994520737846 M370.884705341158,163.30994520737846 L371.4001989696032,163.83323396487322 M371.4001989696032,163.83323396487322 L371.85394212102284,164.45683187811073 M371.85394212102284,164.45683187811073 L372.21956063055876,165.14446138198866 M372.21956063055876,165.14446138198866 L372.47580839178994,165.8561917580438 M372.47580839178994,165.8561917580438 L372.6077888644209,166.55065668986379 M372.6077888644209,166.55065668986379 L372.60783656430414,167.1874828540158 M372.60783656430414,167.1874828540158 L372.4759493953512,167.72966289517365 M372.4759493953512,167.72966289517365 L372.2197886159571,168.14569819961775 M372.2197886159571,168.14569819961775 L371.85424647777415,168.41139509752207 M371.85424647777415,168.41139509752207 L371.40056481509475,168.51132421028052 M371.40056481509475,168.51132421028052 L370.8851137361886,168.43966662723142 M370.8851137361886,168.43966662723142 L370.3378472669582,168.20061179929542 M370.3378472669582,168.20061179929542 L364.7933020328597,175.56237368522056 M364.7919919028264,161.95391062715544 L366.2016938228394,162.96513420349936 M366.2016938228394,162.96513420349936 L367.52951241632144,164.31303761078834 M367.52951241632144,164.31303761078834 L368.6982776857933,165.91929102550648 M368.6982776857933,165.91929102550648 L369.64005507325965,167.69054999797538 M369.64005507325965,167.69054999797538 L370.3001133022697,169.52386791907452 M370.3001133022697,169.52386791907452 L370.6400859983683,171.3126523313244 M370.6400859983683,171.3126523313244 L370.6402176918617,172.9529949051896 M370.6402176918617,172.9529949051896 L370.3005052105504,174.3495286909407 M370.3005052105504,174.3495286909407 L369.6406968472218,175.42110069703813 M369.6406968472218,175.42110069703813 L368.6991495455731,176.10543549960033 M368.6991495455731,176.10543549960033 L367.53058229206,176.36278268805768 M367.53058229206,176.36278268805768 L366.2029149559986,176.17818240563287 M366.2029149559986,176.17818240563287 L364.7933020328597,175.56237368522056 M370.33741874446645,162.9173799689118 L364.7919919028264,161.95391062715544 M370.3378472669582,168.20061179929542 L369.79057023683265,167.80802601016268 M369.79057023683265,167.80802601016268 L369.2750856716838,167.28475139774167 M369.2750856716838,167.28475139774167 L368.8213548158886,166.66117557561824 M368.8213548158886,166.66117557561824 L368.4557432021196,165.9735505228001 M368.4557432021196,165.9735505228001 L368.19949745662177,165.2618243189488 M368.19949745662177,165.2618243189488 L368.0675115609964,164.56737828301175 M368.0675115609964,164.56737828301175 L368.06745595552627,163.93055668924399 M368.06745595552627,163.93055668924399 L368.1993345473318,163.38836584597618 M368.1993345473318,163.38836584597618 L368.45548432919924,162.9723315618898 M368.45548432919924,162.9723315618898 L368.8210176659081,162.70663131465466 M368.8210176659081,162.70663131465466 L369.27469263958903,162.606676869475 M369.27469263958903,162.606676869475 L369.7901464900858,162.67831346545626 M369.7901464900858,162.67831346545626 L370.33741874446645,162.9173799689118 M364.7933020328597,175.56237368522056 L363.38366359438123,174.55115210892234 M363.38366359438123,174.55115210892234 L362.055916950273,173.20328504927733 M362.055916950273,173.20328504927733 L360.8872214295063,171.59709735875919 M360.8872214295063,171.59709735875919 L359.94548770160293,169.82594072914793 M359.94548770160293,169.82594072914793 L359.28544495183024,167.99272572100108 M359.28544495183024,167.99272572100108 L358.9454522904475,166.20399220533278 M358.9454522904475,166.20399220533278 L358.9452681468107,164.56367995398853 M358.9452681468107,164.56367995398853 L359.2849077098265,163.16714896958888 M359.2849077098265,163.16714896958888 L359.94464100378195,162.0955085008386 M359.94464100378195,162.0955085008386 L360.88613200169385,161.41107866527915 M360.88613200169385,161.41107866527915 L362.05466670451204,161.15364424767688 M362.05466670451204,161.15364424767688 L363.3823406097421,161.33816278925195 M363.3823406097421,161.33816278925195 L364.7919919028264,161.95391062715544" stroke="black"  stroke-width="4"  fill="red"/></svg>