<svg viewBox="0 0 800 800" xmlns="http://www.w3.org/2000/svg"><path d="M400.0000000000001,781.1229157201587 L400.00000000000006,29.635964851186316 M407.4062646518045,785.4484152627233 L407.45239093530944,33.93512380866548 M400.0000000000001,781.1229157201587 L407.4062646518045,785.4484152627233 M400.00000000000006,29.635964851186316 L407.45239093530944,33.93512380866548 M392.59373534819565,785.4484152627233 L392.5476090646907,33.93512380866537 M392.59373534819565,785.4484152627233 L400.0000000000001,781.1229157201587 M392.5476090646907,33.93512380866537 L400.00000000000006,29.635964851186316 M407.4062646518045,785.4484152627233 L423.3770065305233,776.1196678259685 M407.45239093530944,33.93512380866548 L417.53335434085034,28.11876092145826 M417.5138782460535,162.99688116317054 L417.53335434085034,28.11876092145826 M417.5138782460535,162.99688116317054 L420.43229054771547,161.30931429908236 M420.43229054771547,161.30931429908236 L420.45501139567386,26.43306710637279 M420.45501139567386,26.43306710637279 L420.60109001906375,26.348784855806116 M420.59650933335496,53.34800750868368 L420.60109001906375,26.348784855806116 M420.59650933335496,53.34800750868368 L423.5173463413516,51.66203651111476 M423.3770065305233,776.1196678259685 L423.5173463413516,51.66203651111476 M415.10366671326045,49.770224550554076 L415.0467830593876,50.34353499082317 M415.0467830593876,50.34353499082317 L414.87957462823226,50.949102975019116 M414.87957462823226,50.949102975019116 L414.6117573276847,51.551746465180145 M414.6117573276847,51.551746465180145 L414.2588962799424,52.11643749409808 M414.2588962799424,52.11643749409808 L413.84149554443735,52.61036189758613 M413.84149554443735,52.61036189758613 L413.3838122893617,53.004819710991114 M413.3838122893617,53.004819710991114 L412.9124426661721,53.27688435427444 M412.9124426661721,53.27688435427444 L412.45477954440116,53.410743519514426 M412.45477954440116,53.410743519514426 L412.03741928822757,53.398619239765196 M412.03741928822757,53.398619239765196 L411.6846198609128,53.241207982702804 M411.6846198609128,53.241207982702804 L411.4168826470043,52.94765675100547 M411.4168826470043,52.94765675100547 L411.2497729459825,52.535027984230965 M411.2497729459825,52.535027984230965 L411.1930029039325,52.02729411828261 M411.1930029039325,52.02729411828261 L411.24987312496535,51.45396709103875 M411.24987312496535,51.45396709103875 L411.4170800724629,50.84837157359789 M411.4170800724629,50.84837157359789 L411.6849081783384,50.245695911074904 M411.6849081783384,50.245695911074904 L412.03778791495995,49.68097655528254 M412.03778791495995,49.68097655528254 L412.4552128716717,49.18703304580532 M412.4552128716717,49.18703304580532 L412.91291963478426,48.792570125963664 M412.91291963478426,48.792570125963664 L413.3843066675291,48.52051554582965 M413.3843066675291,48.52051554582965 L413.84197711204126,48.38667930797129 M413.84197711204126,48.38667930797129 L414.25933292662853,48.39883412681445 M414.25933292662853,48.39883412681445 L414.61211786204285,48.556276136707936 M414.61211786204285,48.556276136707936 L414.8798319235161,48.84985240383679 M414.8798319235161,48.84985240383679 L415.04691704582194,49.262493639165825 M415.04691704582194,49.262493639165825 L415.10366671326045,49.770224550554076 M423.3770065305233,776.1196678259685 L400.1451667159333,762.5556399054813 M400.1451667159333,762.5556399054813 L400.0000000000001,762.6403964655517 M400.0000000000001,762.6403964655517 L399.8548332840668,762.5556399054813 M399.8548332840668,762.5556399054813 L376.62299346947685,776.1196678259685 M376.62299346947685,776.1196678259685 L392.59373534819565,785.4484152627233 M379.3989099809363,26.348784855806116 L399.8539213710386,14.551584737276585 M399.8539213710386,14.551584737276585 L400.00000000000006,14.635834194583595 M400.00000000000006,14.635834194583595 L400.14607862896145,14.551584737276585 M400.14607862896145,14.551584737276585 L420.60109001906375,26.348784855806116 M420.45501139567386,26.43306710637279 L417.5323795074053,24.747467013839128 M417.5323795074053,24.747467013839128 L414.6107224254813,26.43306710637279 M417.53335434085034,28.11876092145826 L414.6107224254813,26.43306710637279 M382.46664565914983,28.11876092145826 L392.5476090646907,33.93512380866537 M382.46664565914983,28.11876092145826 L385.38927757451876,26.43306710637279 M385.38927757451876,26.43306710637279 L382.46762049259473,24.747467013839128 M379.5449886043263,26.43306710637279 L382.46762049259473,24.747467013839128 M379.3989099809363,26.348784855806116 L379.5449886043263,26.43306710637279 M376.62299346947685,776.1196678259685 L376.48265365864853,51.66203651111476 M376.48265365864853,51.66203651111476 L379.4034906666451,53.34800750868368 M379.4034906666451,53.34800750868368 L379.3989099809363,26.348784855806116 M379.5677094522846,161.30931429908236 L379.5449886043263,26.43306710637279 M379.5677094522846,161.30931429908236 L382.48612175394663,162.99688116317049 M382.48612175394663,162.99688116317049 L382.46664565914983,28.11876092145826 M386.8510190214619,45.26520716180653 L387.318991279018,45.600909182962255 M387.318991279018,45.600909182962255 L387.7597833817348,46.04837892962263 M387.7597833817348,46.04837892962263 L388.1477753792978,46.581611704227385 M388.1477753792978,46.581611704227385 L388.4604172598721,47.169611383015024 M388.4604172598721,47.169611383015024 L388.67953918327316,47.778208928543506 M388.67953918327316,47.778208928543506 L388.79240452583537,48.37202883498452 M388.79240452583537,48.37202883498452 L388.79245479495853,48.9165578826383 M388.79245479495853,48.9165578826383 L388.67968855779094,49.380150692133384 M388.67968855779094,49.380150692133384 L388.46066118307255,49.73586452966197 M388.46066118307255,49.73586452966197 L388.14810549011827,49.96302674811221 M388.14810549011827,49.96302674811221 L387.7601866699428,50.04844275889616 M387.7601866699428,50.04844275889616 L387.31944942489304,49.98714605853604 M387.31944942489304,49.98714605853604 L386.85150828925197,49.78270373475465 M386.85150828925197,49.78270373475465 L386.3835571039675,49.446999159793734 M386.3835571039675,49.446999159793734 L385.9427895814488,48.999541881533844 M385.9427895814488,48.999541881533844 L385.5548200409014,48.46633374131102 M385.5548200409014,48.46633374131102 L385.24219265312735,47.878364817138504 M385.24219265312735,47.878364817138504 L385.0230758681788,47.26979821520183 M385.0230758681788,47.26979821520183 L384.9102038989962,46.676001640424374 M384.9102038989962,46.676001640424374 L384.91013621934064,46.131482657603044 M384.91013621934064,46.131482657603044 L385.02287825056067,45.66788434040427 M385.02287825056067,45.66788434040427 L385.24188070619346,45.31215099424469 M385.24188070619346,45.31215099424469 L385.5544177092285,45.08496044748654 M385.5544177092285,45.08496044748654 L385.9423264200416,44.99951266428167 M385.9423264200416,44.99951266428167 L386.3830651488623,45.0607818289547 M386.3830651488623,45.0607818289547 L386.8510190214619,45.26520716180653 M414.5944932483682,161.30931429908236 L417.5138782460535,162.99688116317054 M414.6107224254813,26.43306710637279 L414.5944932483682,161.30931429908236 M417.5129055770406,159.62184115746805 L420.43229054771547,161.30931429908236 M417.5129055770406,159.62184115746805 L414.5944932483682,161.30931429908236 M417.5323795074053,24.747467013839128 L417.5129055770406,159.62184115746805 M400.14604615446007,41.548178122490185 L400.14607862896145,14.551584737276585 M400.14604615446007,41.548178122490185 L420.59650933335496,53.34800750868368 M423.5173463413516,51.66203651111476 L400.14603800544864,38.17764144152346 M400.14603800544864,38.17764144152346 L400.00000000000006,38.26190029448372 M400.00000000000006,38.26190029448372 L399.85396199455147,38.17764144152346 M399.85396199455147,38.17764144152346 L376.48265365864853,51.66203651111476 M379.4034906666451,53.34800750868368 L399.85395384554005,41.548178122490185 M399.85395384554005,41.548178122490185 L400.00000000000006,41.632446360276504 M400.00000000000006,41.632446360276504 L400.14604615446007,41.548178122490185 M400.1451667159333,762.5556399054813 L400.14603800544864,38.17764144152346 M412.0667538715379,49.398488357465794 L412.0446746845837,49.62106632120225 M412.0446746845837,49.62106632120225 L411.9797610530139,49.85617191062977 M411.9797610530139,49.85617191062977 L411.87578652572785,50.09013909533695 M411.87578652572785,50.09013909533695 L411.7387936460128,50.309369633384506 M411.7387936460128,50.309369633384506 L411.57674218436216,50.5011281194914 M411.57674218436216,50.5011281194914 L411.3990515463881,50.65426619955758 M411.3990515463881,50.65426619955758 L411.21604708838254,50.75988644037386 M411.21604708838254,50.75988644037386 L411.03836465445187,50.81185015085009 M411.03836465445187,50.81185015085009 L410.87632933293617,50.80713600449576 M410.87632933293617,50.80713600449576 L410.7393599601644,50.74601970612338 M410.7393599601644,50.74601970612338 L410.6354153867156,50.63204934499646 M410.6354153867156,50.63204934499646 L410.57053683439966,50.47184941597891 M410.57053683439966,50.47184941597891 L410.5484961106056,50.274731761633404 M410.5484961106056,50.274731761633404 L410.5705733778417,50.052151237257874 M410.5705733778417,50.052151237257874 L410.6354867857178,49.81704149789783 M410.6354867857178,49.81704149789783 L410.7394628365774,49.58306952470713 M410.7394628365774,49.58306952470713 L410.8764586381058,49.36383465665227 M410.8764586381058,49.36383465665227 L411.0385137504646,49.17207329085869 M411.0385137504646,49.17207329085869 L411.2162079316822,49.01893444121447 M411.2162079316822,49.01893444121447 L411.3992150137716,48.91331571718291 M411.3992150137716,48.91331571718291 L411.57689855147925,48.86135546237608 M411.57689855147925,48.86135546237608 L411.7389332035971,48.866074211687476 M411.7389332035971,48.866074211687476 L411.87590028717295,48.927195205735586 M411.87590028717295,48.927195205735586 L411.97984147601704,49.04116927962423 M411.97984147601704,49.04116927962423 L412.0447163236891,49.201371087899304 M412.0447163236891,49.201371087899304 L412.0667538715379,49.398488357465794 M412.0667538715379,49.398488357465794 L413.07905378404473,49.52240004956883 M413.07905378404473,49.52240004956883 L414.0913585289575,49.64631184593367 M414.0913585289575,49.64631184593367 L415.10366671326045,49.770224550554076 M400.0000000000001,762.6403964655517 L400.00000000000006,38.26190029448372 M399.8548332840668,762.5556399054813 L399.85396199455147,38.17764144152346 M399.85395384554005,41.548178122490185 L399.8539213710386,14.551584737276585 M400.00000000000006,41.632446360276504 L400.00000000000006,14.635834194583595 M385.40550675163183,161.30931429908236 L382.48612175394663,162.99688116317049 M385.38927757451876,26.43306710637279 L385.40550675163183,161.30931429908236 M385.40550675163183,161.30931429908236 L382.4870944229595,159.62184115746805 M382.46762049259473,24.747467013839128 L382.4870944229595,159.62184115746805 M382.4870944229595,159.62184115746805 L379.5677094522846,161.30931429908236 M388.6919735207157,45.58496995650222 L388.87365373395426,45.715299905442635 M388.87365373395426,45.715299905442635 L389.0447810907256,45.889015529190544 M389.0447810907256,45.889015529190544 L389.1954086102775,46.096028489179105 M389.1954086102775,46.096028489179105 L389.31678300343003,46.324303319925036 M389.31678300343003,46.324303319925036 L389.4018505022624,46.56057742543834 M389.4018505022624,46.56057742543834 L389.4456665443223,46.79111252519448 M389.4456665443223,46.79111252519448 L389.44568492252034,47.002514948311784 M389.44568492252034,47.002514948311784 L389.4019047929315,47.18249642109407 M389.4019047929315,47.18249642109407 L389.31687067360303,47.32060148000323 M389.31687067360303,47.32060148000323 L389.1955254408935,47.40879850986204 M389.1955254408935,47.40879850986204 L389.04492122283096,47.44196619187943 M389.04492122283096,47.44196619187943 L388.8738097944209,47.41817197601574 M388.8738097944209,47.41817197601574 L388.6921368763753,47.338808168170885 M388.6921368763753,47.338808168170885 L388.51045983925843,47.20847783433504 M388.51045983925843,47.20847783433504 L388.3393361873361,47.03476408972614 M388.3393361873361,47.03476408972614 L388.18871205256437,46.827754842657214 M388.18871205256437,46.827754842657214 L388.0673399487568,46.59948470789084 M388.0673399487568,46.59948470789084 L387.98227311934215,46.363215205717665 M387.98227311934215,46.363215205717665 L387.93845597346046,46.132683561977615 M387.93845597346046,46.132683561977615 L387.9384349710302,45.92128265589918 M387.9384349710302,45.92128265589918 L387.9822115571833,45.741300413627755 M387.9822115571833,45.741300413627755 L388.0672420255827,45.603192474956586 M388.0672420255827,45.603192474956586 L388.1885843363279,45.51499111482826 M388.1885843363279,45.51499111482826 L388.33918703072726,45.48181864400067 M388.33918703072726,45.48181864400067 L388.5102986828548,45.505608709665296 M388.5102986828548,45.505608709665296 L388.6919735207157,45.58496995650222 M388.6919735207157,45.58496995650222 L388.0783338408669,45.478383338486594 M388.0783338408669,45.478383338486594 L387.4646823414456,45.37179788598269 M387.4646823414456,45.37179788598269 L386.8510190214619,45.26520716180653 M412.0667538715379,49.398488357465794 L395.963020467685,40.10655445989255 M395.963020467685,40.10655445989255 L395.94095508490574,39.90944937743973 M395.94095508490574,39.90944937743973 L395.87605401916966,39.7492512479493 M395.87605401916966,39.7492512479493 L395.7720897531818,39.635272130634974 M395.7720897531818,39.635272130634974 L395.63510407477867,39.574137663854856 M395.63510407477867,39.574137663854856 L395.4730563903199,39.56939779543126 M395.4730563903199,39.56939779543126 L395.2953661406329,39.621330512099064 M395.2953661406329,39.621330512099064 L395.11235905680667,39.726916879267094 M395.11235905680667,39.726916879267094 L394.93467158419554,39.88002043387735 M394.93467158419554,39.88002043387735 L394.7726295011017,40.07174561741988 M394.7726295011017,40.07174561741988 L394.6356522918004,40.29094551946338 M394.6356522918004,40.29094551946338 L394.5316993161114,40.524885774506515 M394.5316993161114,40.524885774506515 L394.4668121250675,40.7599688871465 M394.4668121250675,40.7599688871465 L394.4447626923432,40.98252942410983 M394.4447626923432,40.98252942410983 L394.4668312508754,41.179634891674255 M394.4668312508754,41.179634891674255 L394.5317360207222,41.339831142830064 M394.5317360207222,41.339831142830064 L394.635703670563,41.453806548684554 M394.635703670563,41.453806548684554 L394.77269163736383,41.51493632117149 M394.77269163736383,41.51493632117149 L394.93473999055857,41.51967158778473 M394.93473999055857,41.51967158778473 L395.11242913609493,41.46773541609531 M395.11242913609493,41.46773541609531 L395.29543359583727,41.36214753214347 M395.29543359583727,41.36214753214347 L395.47311752557846,41.20904474646454 M395.47311752557846,41.20904474646454 L395.6351559586259,41.01732244146302 M395.6351559586259,41.01732244146302 L395.7721302469119,40.798126868044505 M395.7721302469119,40.798126868044505 L395.87608169977926,40.56419140018227 M395.87608169977926,40.56419140018227 L395.94096911505005,40.329112436550815 M395.94096911505005,40.329112436550815 L395.963020467685,40.10655445989255 M388.6919735207157,45.58496995650222 L404.7962708766112,36.29322779616632 M404.7962708766112,36.29322779616632 L404.61459265671635,36.213896716242175 M404.61459265671635,36.213896716242175 L404.4434710597137,36.1901311571649 M404.4434710597137,36.1901311571649 L404.29285243449885,36.22332104921975 M404.29285243449885,36.22332104921975 L404.17148913354515,36.311531733402774 M404.17148913354515,36.311531733402774 L404.08643383493603,36.44964035692266 M404.08643383493603,36.44964035692266 L404.04263002247853,36.62961460547888 M404.04263002247853,36.62961460547888 L404.0426229842502,36.840999303583374 M404.0426229842502,36.840999303583374 L404.0864129050327,37.07150746720805 M404.0864129050327,37.07150746720805 L404.1714549065138,37.30774758128729 M404.1714549065138,37.30774758128729 L404.2928060232148,37.535984128401765 M404.2928060232148,37.535984128401765 L404.443414230782,37.74295753976946 M404.443414230782,37.74295753976946 L404.6145279416108,37.91663528336443 M404.6145279416108,37.91663528336443 L404.7962016003348,38.04693154264595 M404.7962016003348,38.04693154264595 L404.9778779002219,38.12626518324396 M404.9778779002219,38.12626518324396 L405.14899927297375,38.150034891595965 M405.14899927297375,38.150034891595965 L405.29961942109986,38.11684978704875 M405.29961942109986,38.11684978704875 L405.42098564321964,38.02864343175264 M405.42098564321964,38.02864343175264 L405.5060445920961,37.89053768684903 M405.5060445920961,37.89053768684903 L405.54985194761565,37.71056420713552 M405.54985194761565,37.71056420713552 L405.5498616100762,37.499177991992894 M405.5498616100762,37.499177991992894 L405.50607279348935,37.26866637300003 M405.50607279348935,37.26866637300003 L405.42103012325236,37.032421656727536 M405.42103012325236,37.032421656727536 L405.2996767180046,36.804180415016106 M405.2996767180046,36.804180415016106 L405.1490651264092,36.59720329203094 M405.1490651264092,36.59720329203094 L404.97794771126456,36.42352367021982 M404.97794771126456,36.42352367021982 L404.7962708766112,36.29322779616632" stroke="black"  stroke-width="4"  fill="red"/>
<path d="M417.5323795074053,24.747467013839128 L414.6107224254813,26.43306710637279 M417.5129055770406,159.62184115746805 L414.5944932483682,161.30931429908236 M417.5323795074053,24.747467013839128 L417.5129055770406,159.62184115746805 M414.6107224254813,26.43306710637279 L414.5944932483682,161.30931429908236 M534.4149095567741,227.19394757654186 L531.4965018293315,228.8851757161292 M417.5129055770406,159.62184115746805 L534.4149095567741,227.19394757654186 M414.5944932483682,161.30931429908236 L531.4965018293315,228.8851757161292 M534.5645420955215,92.24465161645463 L531.6428896302046,93.93400671687294 M534.4149095567741,227.19394757654186 L534.5645420955215,92.24465161645463 M531.4965018293315,228.8851757161292 L531.6428896302046,93.93400671687294 M534.5645420955215,92.24465161645463 L417.5323795074053,24.747467013839128 M531.6428896302046,93.93400671687294 L414.6107224254813,26.43306710637279" stroke="black"  stroke-width="4"  fill="red"/>
<path d="M385.38927757451876,26.43306710637279 L382.46762049259473,24.747467013839128 M385.40550675163183,161.30931429908236 L382.4870944229595,159.62184115746805 M385.38927757451876,26.43306710637279 L385.40550675163183,161.30931429908236 M382.46762049259473,24.747467013839128 L382.4870944229595,159.62184115746805 M268.50349817066865,228.88517571612908 L265.58509044322597,227.19394757654186 M385.40550675163183,161.30931429908236 L268.50349817066865,228.88517571612908 M382.4870944229595,159.62184115746805 L265.58509044322597,227.19394757654186 M268.35711036979546,93.93400671687294 L265.4354579044786,92.24465161645458 M268.50349817066865,228.88517571612908 L268.35711036979546,93.93400671687294 M265.58509044322597,227.19394757654186 L265.4354579044786,92.24465161645458 M268.35711036979546,93.93400671687294 L385.38927757451876,26.43306710637279 M265.4354579044786,92.24465161645458 L382.46762049259473,24.747467013839128" stroke="black"  stroke-width="4"  fill="red"/>
<path d="M412.0667538715379,49.398488357465794 L412.0446746845837,49.62106632120225 M412.0446746845837,49.62106632120225 L411.9797610530139,49.85617191062977 M411.9797610530139,49.85617191062977 L411.87578652572785,50.09013909533695 M411.87578652572785,50.09013909533695 L411.7387936460128,50.309369633384506 M411.7387936460128,50.309369633384506 L411.57674218436216,50.5011281194914 M411.57674218436216,50.5011281194914 L411.3990515463881,50.65426619955758 M411.3990515463881,50.65426619955758 L411.21604708838254,50.75988644037386 M411.21604708838254,50.75988644037386 L411.03836465445187,50.81185015085009 M411.03836465445187,50.81185015085009 L410.87632933293617,50.80713600449576 M410.87632933293617,50.80713600449576 L410.7393599601644,50.74601970612338 M410.7393599601644,50.74601970612338 L410.6354153867156,50.63204934499646 M410.6354153867156,50.63204934499646 L410.57053683439966,50.47184941597891 M410.57053683439966,50.47184941597891 L410.5484961106056,50.274731761633404 M410.5484961106056,50.274731761633404 L410.5705733778417,50.052151237257874 M410.5705733778417,50.052151237257874 L410.6354867857178,49.81704149789783 M410.6354867857178,49.81704149789783 L410.7394628365774,49.58306952470713 M410.7394628365774,49.58306952470713 L410.8764586381058,49.36383465665227 M410.8764586381058,49.36383465665227 L411.0385137504646,49.17207329085869 M411.0385137504646,49.17207329085869 L411.2162079316822,49.01893444121447 M411.2162079316822,49.01893444121447 L411.3992150137716,48.91331571718291 M411.3992150137716,48.91331571718291 L411.57689855147925,48.86135546237608 M411.57689855147925,48.86135546237608 L411.7389332035971,48.866074211687476 M411.7389332035971,48.866074211687476 L411.87590028717295,48.927195205735586 M411.87590028717295,48.927195205735586 L411.97984147601704,49.04116927962423 M411.97984147601704,49.04116927962423 L412.0447163236891,49.201371087899304 M412.0447163236891,49.201371087899304 L412.0667538715379,49.398488357465794 M412.0667538715379,49.398488357465794 L395.963020467685,40.10655445989255 M395.963020467685,40.10655445989255 L395.94095508490574,39.90944937743973 M395.94095508490574,39.90944937743973 L395.87605401916966,39.7492512479493 M395.87605401916966,39.7492512479493 L395.7720897531818,39.635272130634974 M395.7720897531818,39.635272130634974 L395.63510407477867,39.574137663854856 M395.63510407477867,39.574137663854856 L395.4730563903199,39.56939779543126 M395.4730563903199,39.56939779543126 L395.2953661406329,39.621330512099064 M395.2953661406329,39.621330512099064 L395.11235905680667,39.726916879267094 M395.11235905680667,39.726916879267094 L394.93467158419554,39.88002043387735 M394.93467158419554,39.88002043387735 L394.7726295011017,40.07174561741988 M394.7726295011017,40.07174561741988 L394.6356522918004,40.29094551946338 M394.6356522918004,40.29094551946338 L394.5316993161114,40.524885774506515 M394.5316993161114,40.524885774506515 L394.4668121250675,40.7599688871465 M394.4668121250675,40.7599688871465 L394.4447626923432,40.98252942410983 M394.4447626923432,40.98252942410983 L394.4668312508754,41.179634891674255 M394.4668312508754,41.179634891674255 L394.5317360207222,41.339831142830064 M394.5317360207222,41.339831142830064 L394.635703670563,41.453806548684554 M394.635703670563,41.453806548684554 L394.77269163736383,41.51493632117149 M394.77269163736383,41.51493632117149 L394.93473999055857,41.51967158778473 M394.93473999055857,41.51967158778473 L395.11242913609493,41.46773541609531 M395.11242913609493,41.46773541609531 L395.29543359583727,41.36214753214347 M395.29543359583727,41.36214753214347 L395.47311752557846,41.20904474646454 M395.47311752557846,41.20904474646454 L395.6351559586259,41.01732244146302 M395.6351559586259,41.01732244146302 L395.7721302469119,40.798126868044505 M395.7721302469119,40.798126868044505 L395.87608169977926,40.56419140018227 M395.87608169977926,40.56419140018227 L395.94096911505005,40.329112436550815 M395.94096911505005,40.329112436550815 L395.963020467685,40.10655445989255" stroke="black"  stroke-width="4"  fill="red"/>
<path d="M412.0667538715379,49.398488357465794 L412.0446746845837,49.62106632120225 M412.0446746845837,49.62106632120225 L411.9797610530139,49.85617191062977 M411.9797610530139,49.85617191062977 L411.87578652572785,50.09013909533695 M411.87578652572785,50.09013909533695 L411.7387936460128,50.309369633384506 M411.7387936460128,50.309369633384506 L411.57674218436216,50.5011281194914 M411.57674218436216,50.5011281194914 L411.3990515463881,50.65426619955758 M411.3990515463881,50.65426619955758 L411.21604708838254,50.75988644037386 M411.21604708838254,50.75988644037386 L411.03836465445187,50.81185015085009 M411.03836465445187,50.81185015085009 L410.87632933293617,50.80713600449576 M410.87632933293617,50.80713600449576 L410.7393599601644,50.74601970612338 M410.7393599601644,50.74601970612338 L410.6354153867156,50.63204934499646 M410.6354153867156,50.63204934499646 L410.57053683439966,50.47184941597891 M410.57053683439966,50.47184941597891 L410.5484961106056,50.274731761633404 M410.5484961106056,50.274731761633404 L411.1930029039325,52.02729411828261 M415.10366671326045,49.770224550554076 L415.0467830593876,50.34353499082317 M415.0467830593876,50.34353499082317 L414.87957462823226,50.949102975019116 M414.87957462823226,50.949102975019116 L414.6117573276847,51.551746465180145 M414.6117573276847,51.551746465180145 L414.2588962799424,52.11643749409808 M414.2588962799424,52.11643749409808 L413.84149554443735,52.61036189758613 M413.84149554443735,52.61036189758613 L413.3838122893617,53.004819710991114 M413.3838122893617,53.004819710991114 L412.9124426661721,53.27688435427444 M412.9124426661721,53.27688435427444 L412.45477954440116,53.410743519514426 M412.45477954440116,53.410743519514426 L412.03741928822757,53.398619239765196 M412.03741928822757,53.398619239765196 L411.6846198609128,53.241207982702804 M411.6846198609128,53.241207982702804 L411.4168826470043,52.94765675100547 M411.4168826470043,52.94765675100547 L411.2497729459825,52.535027984230965 M411.2497729459825,52.535027984230965 L411.1930029039325,52.02729411828261 M412.0667538715379,49.398488357465794 L415.10366671326045,49.770224550554076 M410.5484961106056,50.274731761633404 L410.5705733778417,50.052151237257874 M410.5705733778417,50.052151237257874 L410.6354867857178,49.81704149789783 M410.6354867857178,49.81704149789783 L410.7394628365774,49.58306952470713 M410.7394628365774,49.58306952470713 L410.8764586381058,49.36383465665227 M410.8764586381058,49.36383465665227 L411.0385137504646,49.17207329085869 M411.0385137504646,49.17207329085869 L411.2162079316822,49.01893444121447 M411.2162079316822,49.01893444121447 L411.3992150137716,48.91331571718291 M411.3992150137716,48.91331571718291 L411.57689855147925,48.86135546237608 M411.57689855147925,48.86135546237608 L411.7389332035971,48.866074211687476 M411.7389332035971,48.866074211687476 L411.87590028717295,48.927195205735586 M411.87590028717295,48.927195205735586 L411.97984147601704,49.04116927962423 M411.97984147601704,49.04116927962423 L412.0447163236891,49.201371087899304 M412.0447163236891,49.201371087899304 L412.0667538715379,49.398488357465794 M411.1930029039325,52.02729411828261 L411.24987312496535,51.45396709103875 M411.24987312496535,51.45396709103875 L411.4170800724629,50.84837157359789 M411.4170800724629,50.84837157359789 L411.6849081783384,50.245695911074904 M411.6849081783384,50.245695911074904 L412.03778791495995,49.68097655528254 M412.03778791495995,49.68097655528254 L412.4552128716717,49.18703304580532 M412.4552128716717,49.18703304580532 L412.91291963478426,48.792570125963664 M412.91291963478426,48.792570125963664 L413.3843066675291,48.52051554582965 M413.3843066675291,48.52051554582965 L413.84197711204126,48.38667930797129 M413.84197711204126,48.38667930797129 L414.25933292662853,48.39883412681445 M414.25933292662853,48.39883412681445 L414.61211786204285,48.556276136707936 M414.61211786204285,48.556276136707936 L414.8798319235161,48.84985240383679 M414.8798319235161,48.84985240383679 L415.04691704582194,49.262493639165825 M415.04691704582194,49.262493639165825 L415.10366671326045,49.770224550554076" stroke="black"  stroke-width="4"  fill="red"/>
<path d="M388.6919735207157,45.58496995650222 L388.87365373395426,45.715299905442635 M388.87365373395426,45.715299905442635 L389.0447810907256,45.889015529190544 M389.0447810907256,45.889015529190544 L389.1954086102775,46.096028489179105 M389.1954086102775,46.096028489179105 L389.31678300343003,46.324303319925036 M389.31678300343003,46.324303319925036 L389.4018505022624,46.56057742543834 M389.4018505022624,46.56057742543834 L389.4456665443223,46.79111252519448 M389.4456665443223,46.79111252519448 L389.44568492252034,47.002514948311784 M389.44568492252034,47.002514948311784 L389.4019047929315,47.18249642109407 M389.4019047929315,47.18249642109407 L389.31687067360303,47.32060148000323 M389.31687067360303,47.32060148000323 L389.1955254408935,47.40879850986204 M389.1955254408935,47.40879850986204 L389.04492122283096,47.44196619187943 M389.04492122283096,47.44196619187943 L388.8738097944209,47.41817197601574 M388.8738097944209,47.41817197601574 L388.6921368763753,47.338808168170885 M388.6921368763753,47.338808168170885 L388.51045983925843,47.20847783433504 M388.51045983925843,47.20847783433504 L388.3393361873361,47.03476408972614 M388.3393361873361,47.03476408972614 L388.18871205256437,46.827754842657214 M388.18871205256437,46.827754842657214 L388.0673399487568,46.59948470789084 M388.0673399487568,46.59948470789084 L387.98227311934215,46.363215205717665 M387.98227311934215,46.363215205717665 L387.93845597346046,46.132683561977615 M387.93845597346046,46.132683561977615 L387.9384349710302,45.92128265589918 M387.9384349710302,45.92128265589918 L387.9822115571833,45.741300413627755 M387.9822115571833,45.741300413627755 L388.0672420255827,45.603192474956586 M388.0672420255827,45.603192474956586 L388.1885843363279,45.51499111482826 M388.1885843363279,45.51499111482826 L388.33918703072726,45.48181864400067 M388.33918703072726,45.48181864400067 L388.5102986828548,45.505608709665296 M388.5102986828548,45.505608709665296 L388.6919735207157,45.58496995650222 M388.6919735207157,45.58496995650222 L404.7962708766112,36.29322779616632 M404.7962708766112,36.29322779616632 L404.61459265671635,36.213896716242175 M404.61459265671635,36.213896716242175 L404.4434710597137,36.1901311571649 M404.4434710597137,36.1901311571649 L404.29285243449885,36.22332104921975 M404.29285243449885,36.22332104921975 L404.17148913354515,36.311531733402774 M404.17148913354515,36.311531733402774 L404.08643383493603,36.44964035692266 M404.08643383493603,36.44964035692266 L404.04263002247853,36.62961460547888 M404.04263002247853,36.62961460547888 L404.0426229842502,36.840999303583374 M404.0426229842502,36.840999303583374 L404.0864129050327,37.07150746720805 M404.0864129050327,37.07150746720805 L404.1714549065138,37.30774758128729 M404.1714549065138,37.30774758128729 L404.2928060232148,37.535984128401765 M404.2928060232148,37.535984128401765 L404.443414230782,37.74295753976946 M404.443414230782,37.74295753976946 L404.6145279416108,37.91663528336443 M404.6145279416108,37.91663528336443 L404.7962016003348,38.04693154264595 M404.7962016003348,38.04693154264595 L404.9778779002219,38.12626518324396 M404.9778779002219,38.12626518324396 L405.14899927297375,38.150034891595965 M405.14899927297375,38.150034891595965 L405.29961942109986,38.11684978704875 M405.29961942109986,38.11684978704875 L405.42098564321964,38.02864343175264 M405.42098564321964,38.02864343175264 L405.5060445920961,37.89053768684903 M405.5060445920961,37.89053768684903 L405.54985194761565,37.71056420713552 M405.54985194761565,37.71056420713552 L405.5498616100762,37.499177991992894 M405.5498616100762,37.499177991992894 L405.50607279348935,37.26866637300003 M405.50607279348935,37.26866637300003 L405.42103012325236,37.032421656727536 M405.42103012325236,37.032421656727536 L405.2996767180046,36.804180415016106 M405.2996767180046,36.804180415016106 L405.1490651264092,36.59720329203094 M405.1490651264092,36.59720329203094 L404.97794771126456,36.42352367021982 M404.97794771126456,36.42352367021982 L404.7962708766112,36.29322779616632" stroke="black"  stroke-width="4"  fill="red"/>
<path d="M388.6919735207157,45.58496995650222 L388.87365373395426,45.715299905442635 M388.87365373395426,45.715299905442635 L389.0447810907256,45.889015529190544 M389.0447810907256,45.889015529190544 L389.1954086102775,46.096028489179105 M389.1954086102775,46.096028489179105 L389.31678300343003,46.324303319925036 M389.31678300343003,46.324303319925036 L389.4018505022624,46.56057742543834 M389.4018505022624,46.56057742543834 L389.4456665443223,46.79111252519448 M389.4456665443223,46.79111252519448 L389.44568492252034,47.002514948311784 M389.44568492252034,47.002514948311784 L389.4019047929315,47.18249642109407 M389.4019047929315,47.18249642109407 L389.31687067360303,47.32060148000323 M389.31687067360303,47.32060148000323 L389.1955254408935,47.40879850986204 M389.1955254408935,47.40879850986204 L389.04492122283096,47.44196619187943 M389.04492122283096,47.44196619187943 L388.8738097944209,47.41817197601574 M388.8738097944209,47.41817197601574 L388.6921368763753,47.338808168170885 M388.6921368763753,47.338808168170885 L386.85150828925197,49.78270373475465 M386.8510190214619,45.26520716180653 L387.318991279018,45.600909182962255 M387.318991279018,45.600909182962255 L387.7597833817348,46.04837892962263 M387.7597833817348,46.04837892962263 L388.1477753792978,46.581611704227385 M388.1477753792978,46.581611704227385 L388.4604172598721,47.169611383015024 M388.4604172598721,47.169611383015024 L388.67953918327316,47.778208928543506 M388.67953918327316,47.778208928543506 L388.79240452583537,48.37202883498452 M388.79240452583537,48.37202883498452 L388.79245479495853,48.9165578826383 M388.79245479495853,48.9165578826383 L388.67968855779094,49.380150692133384 M388.67968855779094,49.380150692133384 L388.46066118307255,49.73586452966197 M388.46066118307255,49.73586452966197 L388.14810549011827,49.96302674811221 M388.14810549011827,49.96302674811221 L387.7601866699428,50.04844275889616 M387.7601866699428,50.04844275889616 L387.31944942489304,49.98714605853604 M387.31944942489304,49.98714605853604 L386.85150828925197,49.78270373475465 M388.6919735207157,45.58496995650222 L386.8510190214619,45.26520716180653 M388.6921368763753,47.338808168170885 L388.51045983925843,47.20847783433504 M388.51045983925843,47.20847783433504 L388.3393361873361,47.03476408972614 M388.3393361873361,47.03476408972614 L388.18871205256437,46.827754842657214 M388.18871205256437,46.827754842657214 L388.0673399487568,46.59948470789084 M388.0673399487568,46.59948470789084 L387.98227311934215,46.363215205717665 M387.98227311934215,46.363215205717665 L387.93845597346046,46.132683561977615 M387.93845597346046,46.132683561977615 L387.9384349710302,45.92128265589918 M387.9384349710302,45.92128265589918 L387.9822115571833,45.741300413627755 M387.9822115571833,45.741300413627755 L388.0672420255827,45.603192474956586 M388.0672420255827,45.603192474956586 L388.1885843363279,45.51499111482826 M388.1885843363279,45.51499111482826 L388.33918703072726,45.48181864400067 M388.33918703072726,45.48181864400067 L388.5102986828548,45.505608709665296 M388.5102986828548,45.505608709665296 L388.6919735207157,45.58496995650222 M386.85150828925197,49.78270373475465 L386.3835571039675,49.446999159793734 M386.3835571039675,49.446999159793734 L385.9427895814488,48.999541881533844 M385.9427895814488,48.999541881533844 L385.5548200409014,48.46633374131102 M385.5548200409014,48.46633374131102 L385.24219265312735,47.878364817138504 M385.24219265312735,47.878364817138504 L385.0230758681788,47.26979821520183 M385.0230758681788,47.26979821520183 L384.9102038989962,46.676001640424374 M384.9102038989962,46.676001640424374 L384.91013621934064,46.131482657603044 M384.91013621934064,46.131482657603044 L385.02287825056067,45.66788434040427 M385.02287825056067,45.66788434040427 L385.24188070619346,45.31215099424469 M385.24188070619346,45.31215099424469 L385.5544177092285,45.08496044748654 M385.5544177092285,45.08496044748654 L385.9423264200416,44.99951266428167 M385.9423264200416,44.99951266428167 L386.3830651488623,45.0607818289547 M386.3830651488623,45.0607818289547 L386.8510190214619,45.26520716180653" stroke="black"  stroke-width="4"  fill="red"/></svg>