<svg viewBox="0 0 800 800" xmlns="http://www.w3.org/2000/svg"><path d="M400,270.39314731913566 L329.6244219372343,311.02450625804886 M400,270.39314731913566 L400,148.48552219998203 M329.6009503714546,189.10332681166665 L400,148.48552219998203 M329.6244219372343,311.02450625804886 L329.6009503714546,189.10332681166665 M400,270.39314731913566 L470.37557806276567,311.024506258049 M461.5803417501786,316.1046961728918 L470.37557806276567,311.024506258049 M452.7816835470742,311.024506258049 L461.5803417501786,316.1046961728918 M443.98595839298474,316.1046961728918 L452.7816835470742,311.024506258049 M443.98595839298474,316.1046961728918 L452.7846166775853,321.1851683989275 M417.5968279722327,341.5098808857003 L452.7846166775853,321.1851683989275 M400,331.3469598787125 L417.5968279722327,341.5098808857003 M382.4031720277673,341.5098808857003 L400,331.3469598787125 M347.21538332241465,321.1851683989275 L382.4031720277673,341.5098808857003 M356.01404160701526,316.1046961728918 L347.21538332241465,321.1851683989275 M347.2183164529257,311.02450625804886 L356.01404160701526,316.1046961728918 M347.2183164529257,311.02450625804886 L338.41965824982134,316.1046961728918 M329.6244219372343,311.02450625804886 L338.41965824982134,316.1046961728918 M470.37557806276567,311.024506258049 L470.39904962854536,189.10332681166665 M470.39904962854536,189.10332681166665 L400,148.48552219998203 M461.60088051170624,194.1818224353823 L470.39904962854536,189.10332681166665 M329.6009503714546,189.10332681166665 L338.3991194882937,194.1818224353823 M338.3991194882937,194.1818224353823 L347.20071277859097,189.10332681166665 M347.20071277859097,189.10332681166665 L400,158.63828028596276 M400,158.63828028596276 L452.7992872214089,189.10332681166665 M452.7992872214089,189.10332681166665 L461.60088051170624,194.1818224353823 M338.41965824982134,316.1046961728918 L338.3991194882937,194.1818224353823 M461.5803417501786,316.1046961728918 L461.60088051170624,194.1818224353823 M452.7992872214089,189.10332681166665 L452.7816835470742,311.024506258049 M452.8110295292531,107.77734937302569 L452.7992872214089,189.10332681166665 M444.0104147374805,112.85471358498046 L443.98595839298474,316.1046961728918 M452.8110295292531,107.77734937302569 L444.0104147374805,112.85471358498046 M452.81396592233233,117.93236010798398 L444.0104147374805,112.85471358498046 M452.7846166775853,321.1851683989275 L452.81396592233233,117.93236010798398 M417.5968279722327,341.5098808857003 L417.6066132294045,138.24576978144893 M417.6066132294045,138.24576978144893 L452.81396592233233,117.93236010798398 M441.095301148819,185.6903646445279 L440.92397104969945,187.41730428928952 M440.92397104969945,187.41730428928952 L440.42031030521497,189.24141477396125 M440.42031030521497,189.24141477396125 L439.6135849123088,191.05671968306774 M439.6135849123088,191.05671968306774 L438.55068048760666,192.7577064842963 M438.55068048760666,192.7577064842963 L437.2933603104373,194.24553092965175 M437.2933603104373,194.24553092965175 L435.9146933153876,195.43374151213686 M435.9146933153876,195.43374151213686 L434.49479437598404,196.25327734864925 M434.49479437598404,196.25327734864925 L433.1161764829121,196.65650849598842 M433.1161764829121,196.65650849598842 L431.8589640923962,196.6200001929954 M431.8589640923962,196.6200001929954 L430.79621701078315,196.14585674088283 M430.79621701078315,196.14585674088283 L429.98970037388347,195.26162534340085 M429.98970037388347,195.26162534340085 L429.4863001226941,194.01870248123652 M429.4863001226941,194.01870248123652 L429.315273067022,192.48929807035483 M429.315273067022,192.48929807035483 L429.48656270120335,190.76230846173974 M429.48656270120335,190.76230846173974 L429.9902189753991,188.93811503975866 M429.9902189753991,188.93811503975866 L430.79697691649903,187.12271321867547 M430.79697691649903,187.12271321867547 L431.85993973582816,185.42163987778548 M431.85993973582816,185.42163987778548 L433.11732867848247,183.93376030124995 M433.11732867848247,183.93376030124995 L434.4960685859311,182.74553312501405 M434.4960685859311,182.74553312501405 L435.91601996930854,181.92602760071884 M435.91601996930854,181.92602760071884 L437.29465782368135,181.52286672742082 M437.29465782368135,181.52286672742082 L438.55186103205506,181.5594646003118 M438.55186103205506,181.5594646003118 L439.6145623619474,182.033701899589 M439.6145623619474,182.033701899589 L440.42100925663107,182.91800871118653 M440.42100925663107,182.91800871118653 L440.9243354686684,184.16096913280205 M440.9243354686684,184.16096913280205 L441.095301148819,185.6903646445279 M400,331.3469598787125 L400,128.08850018132466 M400,128.08850018132466 L417.6066132294045,138.24576978144893 M382.4031720277673,341.5098808857003 L382.3933867705954,138.24576978144893 M382.3933867705954,138.24576978144893 L400,128.08850018132466 M347.21538332241465,321.1851683989275 L347.18603407766756,117.93236010798387 M347.18603407766756,117.93236010798387 L382.3933867705954,138.24576978144893 M364.7900342345904,141.61939787558669 L366.1998145308013,142.63059812414838 M366.1998145308013,142.63059812414838 L367.5277069504693,143.97852353669856 M367.5277069504693,143.97852353669856 L368.6965372051421,145.5848430114737 M368.6965372051421,145.5848430114737 L369.6383669592336,147.3562082608256 M369.6383669592336,147.3562082608256 L370.29846189279573,149.18966649779503 M370.29846189279573,149.18966649779503 L370.63845349783014,150.97861710522068 M370.63845349783014,150.97861710522068 L370.6385852067475,152.61915179629875 M370.6385852067475,152.61915179629875 L370.29885384387256,154.01585422925427 M370.29885384387256,154.01585422925427 L369.6390088045666,155.08761866341962 M369.6390088045666,155.08761866341962 L368.6974091627098,155.77212996503442 M368.6974091627098,155.77212996503442 L367.52877694518645,156.02960864002034 M367.52877694518645,156.02960864002034 L366.20103579975955,155.84511571459234 M366.20103579975955,155.84511571459234 L364.7913445112527,155.2293839843374 M364.7913445112527,155.2293839843374 L363.38162770270185,154.21817603343192 M363.38162770270185,154.21817603343192 L362.0538072405251,152.87028696772563 M362.0538072405251,152.87028696772563 L360.8850467432342,151.2640429179673 M360.8850467432342,151.2640429179673 L359.9432606526406,149.49277032776905 M359.9432606526406,149.49277032776905 L359.2831811988414,147.6594053226055 M359.2831811988414,147.6594053226055 L358.9431696283545,145.87052501570008 M358.9431696283545,145.87052501570008 L358.9429854631515,144.23002065743339 M358.9429854631515,144.23002065743339 L359.28264389817326,142.83330163944834 M359.28264389817326,142.83330163944834 L359.9424138606624,141.7614784354331 M359.9424138606624,141.7614784354331 L360.8839571932344,141.07688178708224 M360.8839571932344,141.07688178708224 L362.0525568557295,140.81930617484397 M362.0525568557295,140.81930617484397 L363.38030457093834,141.0037173450856 M363.38030457093834,141.0037173450856 L364.7900342345904,141.61939787558669 M347.18603407766756,117.93236010798387 L355.98958526251937,112.85471358498035 M355.98958526251937,112.85471358498035 L356.01404160701526,316.1046961728918 M347.20071277859097,189.10332681166665 L347.2183164529257,311.02450625804886 M347.18897047074677,107.77734937302569 L347.20071277859097,189.10332681166665 M355.98958526251937,112.85471358498035 L347.18897047074677,107.77734937302569 M400,158.63828028596276 L400,77.31909131506387 M347.18897047074677,107.77734937302569 L400,77.31909131506387 M400,77.31909131506387 L452.8110295292531,107.77734937302569 M431.94741280771626,184.57058984299255 L431.88091164370206,185.24104459601244 M431.88091164370206,185.24104459601244 L431.6853805468466,185.94923687480855 M431.6853805468466,185.94923687480855 L431.3721860997937,186.6540014427668 M431.3721860997937,186.6540014427668 L430.95952978946826,187.31437717489274 M430.95952978946826,187.31437717489274 L430.47138840606186,187.89200193117148 M430.47138840606186,187.89200193117148 L429.93613566261905,188.35329406713038 M429.93613566261905,188.35329406713038 L429.38487435302306,188.67145217599153 M429.38487435302306,188.67145217599153 L428.84964055681496,188.82798599082116 M428.84964055681496,188.82798599082116 L428.36154486643056,188.8137893914154 M428.36154486643056,188.8137893914154 L427.9489450069897,188.62970099683707 M427.9489450069897,188.62970099683707 L427.63583027518285,188.28639966997656 M427.63583027518285,188.28639966997656 L427.4403905176212,187.80384447636055 M427.4403905176212,187.80384447636055 L427.37398790394764,187.21008460435758 M427.37398790394764,187.21008460435758 L427.4404853832153,186.53962092713897 M427.4404853832153,186.53962092713897 L427.63601580607747,185.83141614766436 M427.63601580607747,185.83141614766436 L427.94921274428333,185.12663836642236 M427.94921274428333,185.12663836642236 L428.3618820523717,184.46624716919433 M428.3618820523717,184.46624716919433 L428.8500302364725,183.88861616027862 M428.8500302364725,183.88861616027862 L429.38529575156053,183.42732049508874 M429.38529575156053,183.42732049508874 L429.936564965861,183.1091669550862 M429.936564965861,183.1091669550862 L430.4717999889843,182.95264476054825 M430.4717999889843,182.95264476054825 L430.9598978594226,182.96685280339466 M430.9598978594226,182.96685280339466 L431.37248662682174,183.15095776456758 M431.37248662682174,183.15095776456758 L431.685593261346,183.49426906441175 M431.685593261346,183.49426906441175 L431.88102185930563,183.97682991897892 M431.88102185930563,183.97682991897892 L431.94741280771626,184.57058984299255 M431.94741280771626,184.57058984299255 L434.99669576359645,184.94384698879782 M434.99669576359645,184.94384698879782 L438.04599327601693,185.31710444869088 M438.04599327601693,185.31710444869088 L441.095301148819,185.6903646445279 M370.3357694658413,142.58350835784728 L370.88308648993035,142.97606453852364 M370.88308648993035,142.97606453852364 L371.3986087789371,143.4993618389164 M371.3986087789371,143.4993618389164 L371.85237715844335,144.12298539882158 M371.85237715844335,144.12298539882158 L372.21801599714047,144.81065615896375 M372.21801599714047,144.81065615896375 L372.47427800724654,145.52244100646328 M372.47427800724654,145.52244100646328 L372.60626582012173,146.2169704592302 M372.60626582012173,146.2169704592302 L372.6063135253095,146.85386744209575 M372.6063135253095,146.85386744209575 L372.474419027218,147.3961301805454 M372.474419027218,147.3961301805454 L372.2182440078921,147.8122267308923 M372.2182440078921,147.8122267308923 L371.8526815482946,148.07797869098277 M371.8526815482946,148.07797869098277 L371.39897466511263,148.17797231274506 M371.39897466511263,148.17797231274506 L370.8834949311485,148.10636610586533 M370.8834949311485,148.10636610586533 L370.33619803520037,147.8673180134258 M370.33619803520037,147.8673180134258 L369.7888905803286,147.47476067121636 M369.7888905803286,147.47476067121636 L369.27337735494166,146.95146782071208 M369.27337735494166,146.95146782071208 L368.8196212714838,146.32785665759877 M368.8196212714838,146.32785665759877 L368.4539893301471,145.64020004535024 M368.4539893301471,145.64020004535024 L368.19772933684175,144.92842906735763 M368.19772933684175,144.92842906735763 L368.0657360996428,144.2339088174145 M368.0657360996428,144.2339088174145 L368.0656804879891,143.597016406457 M368.0656804879891,143.597016406457 L368.1975664085924,143.05475256172122 M368.1975664085924,143.05475256172122 L368.45373042843903,142.63864733609472 M368.45373042843903,142.63864733609472 L368.8192840848374,142.3728823301605 M368.8192840848374,142.3728823301605 L369.27298427914,142.27287306926485 M369.27298427914,142.27287306926485 L369.7884667856581,142.34446798199724 M369.7884667856581,142.34446798199724 L370.3357694658413,142.58350835784728 M370.3357694658413,142.58350835784728 L368.4872266652708,142.2621379234712 M368.4872266652708,142.2621379234712 L366.6386482563435,141.94078069162742 M366.6386482563435,141.94078069162742 L364.7900342345904,141.61939787558669 M431.94741280771626,184.57058984299255 L383.4397507016398,156.58065072364928 M383.4397507016398,156.58065072364928 L383.37327590914094,155.98692750916905 M383.37327590914094,155.98692750916905 L383.17776833796705,155.50437773439734 M383.17776833796705,155.50437773439734 L382.8645921918087,155.1610512404411 M382.8645921918087,155.1610512404411 L382.45194741483175,154.9769056936678 M382.45194741483175,154.9769056936678 L381.96381029045784,154.9626340322393 M381.96381029045784,154.9626340322393 L381.42855505179085,155.11907327245638 M381.42855505179085,155.11907327245638 L380.8772858346058,155.43712934305813 M380.8772858346058,155.43712934305813 L380.34204052945995,155.89831868823774 M380.34204052945995,155.89831868823774 L379.8539315941864,156.47584070612783 M379.8539315941864,156.47584070612783 L379.44131829135773,157.13612657495906 M379.44131829135773,157.13612657495906 L379.1281908615088,157.84080881286502 M379.1281908615088,157.84080881286502 L378.9327394098153,158.54893338589648 M378.9327394098153,158.54893338589648 L378.86632577394073,159.21933685617353 M378.86632577394073,159.21933685617353 L378.932812231123,159.8130600200157 M378.932812231123,159.8130600200157 L379.1283309602929,160.2956041366167 M379.1283309602929,160.2956041366167 L379.4415152014691,160.63892066114 M379.4415152014691,160.63892066114 L379.85417106808336,160.82304964622585 M379.85417106808336,160.82304964622585 L380.34230601040986,160.83730986692552 M380.34230601040986,160.83730986692552 L380.87756002103595,160.68085900873928 M380.87756002103595,160.68085900873928 L381.42882133351645,160.36279836928117 M381.42882133351645,160.36279836928117 L381.9640538681425,159.90161255101395 M381.9640538681425,159.90161255101395 L382.45215600471494,159.3240967830514 M382.45215600471494,159.3240967830514 L382.86475631218514,158.6638263744161 M382.86475631218514,158.6638263744161 L383.1778812531458,157.95915734624128 M383.1778812531458,157.95915734624128 L383.37333338043896,157.25104527110472 M383.37333338043896,157.25104527110472 L383.4397507016398,156.58065072364928 M370.3357694658413,142.58350835784728 L418.8491758329049,114.59648561712982 M418.8491758329049,114.59648561712982 L418.3018629685634,114.35753611260816 M418.3018629685634,114.35753611260816 L417.78635050200694,114.28601501299363 M417.78635050200694,114.28601501299363 L417.3326023135471,114.3860767388203 M417.3326023135471,114.3860767388203 L416.96698542274396,114.65186981581854 M416.96698542274396,114.65186981581854 L416.71074659924653,115.06797708534708 M416.71074659924653,115.06797708534708 L416.5787786531714,115.61021682793057 M416.5787786531714,115.61021682793057 L416.57874978667104,116.24706039281301 M416.57874978667104,116.24706039281301 L416.7106610009053,116.94150989053651 M416.7106610009053,116.94150989053651 L416.9668461952357,117.65319232295985 M416.9668461952357,117.65319232295985 L417.33241490839976,118.34074774227321 M417.33241490839976,118.34074774227321 L417.7861230047152,118.96425094314895 M417.7861230047152,118.96425094314895 L418.3016062770665,119.4874353382209 M418.3016062770665,119.4874353382209 L418.8489035540886,119.87989003559096 M418.8489035540886,119.87989003559096 L419.3962106336152,120.11884725569485 M419.3962106336152,120.11884725569485 L419.9117203260107,120.19037964704233 M419.9117203260107,120.19037964704233 L420.3654752010844,120.09033355605288 M420.3654752010844,120.09033355605288 L420.7311008926814,119.82455352073288 M420.7311008926814,119.82455352073288 L420.98735071366434,119.40845492303197 M420.98735071366434,119.40845492303197 L421.1193272361017,118.86621628515815 M421.1193272361017,118.86621628515815 L421.119364009068,118.22936814837061 M421.119364009068,118.22936814837061 L420.9874582202837,117.53490944940563 M420.9874582202837,117.53490944940563 L420.7312710111467,116.82321315093094 M420.7312710111467,116.82321315093094 L420.3656954030275,116.1356435878904 M420.3656954030275,116.1356435878904 L419.91197501292913,115.5121279945165 M419.91197501292913,115.5121279945165 L419.39648267856455,114.98893915196561 M419.39648267856455,114.98893915196561 L418.8491758329049,114.59648561712982" stroke="black"  stroke-width="4"  fill="red"/>
<path d="M452.8110295292531,107.77734937302569 L444.0104147374805,112.85471358498046 M452.75237016067683,514.0459082203964 L443.96152921390444,519.1289144303621 M452.8110295292531,107.77734937302569 L452.75237016067683,514.0459082203964 M444.0104147374805,112.85471358498046 L443.96152921390444,519.1289144303621 M804.8845597242747,717.5865916709382 L796.0937326373252,722.6809086849362 M452.75237016067683,514.0459082203964 L804.8845597242747,717.5865916709382 M443.96152921390444,519.1289144303621 L796.0937326373252,722.6809086849362 M805.3352828231551,311.09235334522293 L796.5346819375254,316.18102839106626 M804.8845597242747,717.5865916709382 L805.3352828231551,311.09235334522293 M796.0937326373252,722.6809086849362 L796.5346819375254,316.18102839106626 M805.3352828231551,311.09235334522293 L452.8110295292531,107.77734937302569 M796.5346819375254,316.18102839106626 L444.0104147374805,112.85471358498046" stroke="black"  stroke-width="4"  fill="red"/>
<path d="M355.98958526251937,112.85471358498035 L347.18897047074677,107.77734937302569 M356.03847078609556,519.1289144303621 L347.2476298393231,514.0459082203964 M355.98958526251937,112.85471358498035 L356.03847078609556,519.1289144303621 M347.18897047074677,107.77734937302569 L347.2476298393231,514.0459082203964 M3.9062673626747824,722.6809086849361 L-4.884559724274709,717.5865916709382 M356.03847078609556,519.1289144303621 L3.9062673626747824,722.6809086849361 M347.2476298393231,514.0459082203964 L-4.884559724274709,717.5865916709382 M3.46531806247458,316.18102839106626 L-5.335282823155126,311.09235334522293 M3.9062673626747824,722.6809086849361 L3.46531806247458,316.18102839106626 M-4.884559724274709,717.5865916709382 L-5.335282823155126,311.09235334522293 M3.46531806247458,316.18102839106626 L355.98958526251937,112.85471358498035 M-5.335282823155126,311.09235334522293 L347.18897047074677,107.77734937302569" stroke="black"  stroke-width="4"  fill="red"/>
<path d="M370.3357694658413,142.58350835784728 L370.88308648993035,142.97606453852364 M370.88308648993035,142.97606453852364 L371.3986087789371,143.4993618389164 M371.3986087789371,143.4993618389164 L371.85237715844335,144.12298539882158 M371.85237715844335,144.12298539882158 L372.21801599714047,144.81065615896375 M372.21801599714047,144.81065615896375 L372.47427800724654,145.52244100646328 M372.47427800724654,145.52244100646328 L372.60626582012173,146.2169704592302 M372.60626582012173,146.2169704592302 L372.6063135253095,146.85386744209575 M372.6063135253095,146.85386744209575 L372.474419027218,147.3961301805454 M372.474419027218,147.3961301805454 L372.2182440078921,147.8122267308923 M372.2182440078921,147.8122267308923 L371.8526815482946,148.07797869098277 M371.8526815482946,148.07797869098277 L371.39897466511263,148.17797231274506 M371.39897466511263,148.17797231274506 L370.8834949311485,148.10636610586533 M370.8834949311485,148.10636610586533 L370.33619803520037,147.8673180134258 M370.33619803520037,147.8673180134258 L369.7888905803286,147.47476067121636 M369.7888905803286,147.47476067121636 L369.27337735494166,146.95146782071208 M369.27337735494166,146.95146782071208 L368.8196212714838,146.32785665759877 M368.8196212714838,146.32785665759877 L368.4539893301471,145.64020004535024 M368.4539893301471,145.64020004535024 L368.19772933684175,144.92842906735763 M368.19772933684175,144.92842906735763 L368.0657360996428,144.2339088174145 M368.0657360996428,144.2339088174145 L368.0656804879891,143.597016406457 M368.0656804879891,143.597016406457 L368.1975664085924,143.05475256172122 M368.1975664085924,143.05475256172122 L368.45373042843903,142.63864733609472 M368.45373042843903,142.63864733609472 L368.8192840848374,142.3728823301605 M368.8192840848374,142.3728823301605 L369.27298427914,142.27287306926485 M369.27298427914,142.27287306926485 L369.7884667856581,142.34446798199724 M369.7884667856581,142.34446798199724 L370.3357694658413,142.58350835784728 M370.3357694658413,142.58350835784728 L418.8491758329049,114.59648561712982 M418.8491758329049,114.59648561712982 L418.3018629685634,114.35753611260816 M418.3018629685634,114.35753611260816 L417.78635050200694,114.28601501299363 M417.78635050200694,114.28601501299363 L417.3326023135471,114.3860767388203 M417.3326023135471,114.3860767388203 L416.96698542274396,114.65186981581854 M416.96698542274396,114.65186981581854 L416.71074659924653,115.06797708534708 M416.71074659924653,115.06797708534708 L416.5787786531714,115.61021682793057 M416.5787786531714,115.61021682793057 L416.57874978667104,116.24706039281301 M416.57874978667104,116.24706039281301 L416.7106610009053,116.94150989053651 M416.7106610009053,116.94150989053651 L416.9668461952357,117.65319232295985 M416.9668461952357,117.65319232295985 L417.33241490839976,118.34074774227321 M417.33241490839976,118.34074774227321 L417.7861230047152,118.96425094314895 M417.7861230047152,118.96425094314895 L418.3016062770665,119.4874353382209 M418.3016062770665,119.4874353382209 L418.8489035540886,119.87989003559096 M418.8489035540886,119.87989003559096 L419.3962106336152,120.11884725569485 M419.3962106336152,120.11884725569485 L419.9117203260107,120.19037964704233 M419.9117203260107,120.19037964704233 L420.3654752010844,120.09033355605288 M420.3654752010844,120.09033355605288 L420.7311008926814,119.82455352073288 M420.7311008926814,119.82455352073288 L420.98735071366434,119.40845492303197 M420.98735071366434,119.40845492303197 L421.1193272361017,118.86621628515815 M421.1193272361017,118.86621628515815 L421.119364009068,118.22936814837061 M421.119364009068,118.22936814837061 L420.9874582202837,117.53490944940563 M420.9874582202837,117.53490944940563 L420.7312710111467,116.82321315093094 M420.7312710111467,116.82321315093094 L420.3656954030275,116.1356435878904 M420.3656954030275,116.1356435878904 L419.91197501292913,115.5121279945165 M419.91197501292913,115.5121279945165 L419.39648267856455,114.98893915196561 M419.39648267856455,114.98893915196561 L418.8491758329049,114.59648561712982" stroke="black"  stroke-width="4"  fill="red"/>
<path d="M370.3357694658413,142.58350835784728 L370.88308648993035,142.97606453852364 M370.88308648993035,142.97606453852364 L371.3986087789371,143.4993618389164 M371.3986087789371,143.4993618389164 L371.85237715844335,144.12298539882158 M371.85237715844335,144.12298539882158 L372.21801599714047,144.81065615896375 M372.21801599714047,144.81065615896375 L372.47427800724654,145.52244100646328 M372.47427800724654,145.52244100646328 L372.60626582012173,146.2169704592302 M372.60626582012173,146.2169704592302 L372.6063135253095,146.85386744209575 M372.6063135253095,146.85386744209575 L372.474419027218,147.3961301805454 M372.474419027218,147.3961301805454 L372.2182440078921,147.8122267308923 M372.2182440078921,147.8122267308923 L371.8526815482946,148.07797869098277 M371.8526815482946,148.07797869098277 L371.39897466511263,148.17797231274506 M371.39897466511263,148.17797231274506 L370.8834949311485,148.10636610586533 M370.8834949311485,148.10636610586533 L370.33619803520037,147.8673180134258 M370.33619803520037,147.8673180134258 L364.7913445112527,155.2293839843374 M364.7900342345904,141.61939787558669 L366.1998145308013,142.63059812414838 M366.1998145308013,142.63059812414838 L367.5277069504693,143.97852353669856 M367.5277069504693,143.97852353669856 L368.6965372051421,145.5848430114737 M368.6965372051421,145.5848430114737 L369.6383669592336,147.3562082608256 M369.6383669592336,147.3562082608256 L370.29846189279573,149.18966649779503 M370.29846189279573,149.18966649779503 L370.63845349783014,150.97861710522068 M370.63845349783014,150.97861710522068 L370.6385852067475,152.61915179629875 M370.6385852067475,152.61915179629875 L370.29885384387256,154.01585422925427 M370.29885384387256,154.01585422925427 L369.6390088045666,155.08761866341962 M369.6390088045666,155.08761866341962 L368.6974091627098,155.77212996503442 M368.6974091627098,155.77212996503442 L367.52877694518645,156.02960864002034 M367.52877694518645,156.02960864002034 L366.20103579975955,155.84511571459234 M366.20103579975955,155.84511571459234 L364.7913445112527,155.2293839843374 M370.3357694658413,142.58350835784728 L364.7900342345904,141.61939787558669 M370.33619803520037,147.8673180134258 L369.7888905803286,147.47476067121636 M369.7888905803286,147.47476067121636 L369.27337735494166,146.95146782071208 M369.27337735494166,146.95146782071208 L368.8196212714838,146.32785665759877 M368.8196212714838,146.32785665759877 L368.4539893301471,145.64020004535024 M368.4539893301471,145.64020004535024 L368.19772933684175,144.92842906735763 M368.19772933684175,144.92842906735763 L368.0657360996428,144.2339088174145 M368.0657360996428,144.2339088174145 L368.0656804879891,143.597016406457 M368.0656804879891,143.597016406457 L368.1975664085924,143.05475256172122 M368.1975664085924,143.05475256172122 L368.45373042843903,142.63864733609472 M368.45373042843903,142.63864733609472 L368.8192840848374,142.3728823301605 M368.8192840848374,142.3728823301605 L369.27298427914,142.27287306926485 M369.27298427914,142.27287306926485 L369.7884667856581,142.34446798199724 M369.7884667856581,142.34446798199724 L370.3357694658413,142.58350835784728 M364.7913445112527,155.2293839843374 L363.38162770270185,154.21817603343192 M363.38162770270185,154.21817603343192 L362.0538072405251,152.87028696772563 M362.0538072405251,152.87028696772563 L360.8850467432342,151.2640429179673 M360.8850467432342,151.2640429179673 L359.9432606526406,149.49277032776905 M359.9432606526406,149.49277032776905 L359.2831811988414,147.6594053226055 M359.2831811988414,147.6594053226055 L358.9431696283545,145.87052501570008 M358.9431696283545,145.87052501570008 L358.9429854631515,144.23002065743339 M358.9429854631515,144.23002065743339 L359.28264389817326,142.83330163944834 M359.28264389817326,142.83330163944834 L359.9424138606624,141.7614784354331 M359.9424138606624,141.7614784354331 L360.8839571932344,141.07688178708224 M360.8839571932344,141.07688178708224 L362.0525568557295,140.81930617484397 M362.0525568557295,140.81930617484397 L363.38030457093834,141.0037173450856 M363.38030457093834,141.0037173450856 L364.7900342345904,141.61939787558669" stroke="black"  stroke-width="4"  fill="red"/>
<path d="M431.94741280771626,184.57058984299255 L431.88091164370206,185.24104459601244 M431.88091164370206,185.24104459601244 L431.6853805468466,185.94923687480855 M431.6853805468466,185.94923687480855 L431.3721860997937,186.6540014427668 M431.3721860997937,186.6540014427668 L430.95952978946826,187.31437717489274 M430.95952978946826,187.31437717489274 L430.47138840606186,187.89200193117148 M430.47138840606186,187.89200193117148 L429.93613566261905,188.35329406713038 M429.93613566261905,188.35329406713038 L429.38487435302306,188.67145217599153 M429.38487435302306,188.67145217599153 L428.84964055681496,188.82798599082116 M428.84964055681496,188.82798599082116 L428.36154486643056,188.8137893914154 M428.36154486643056,188.8137893914154 L427.9489450069897,188.62970099683707 M427.9489450069897,188.62970099683707 L427.63583027518285,188.28639966997656 M427.63583027518285,188.28639966997656 L427.4403905176212,187.80384447636055 M427.4403905176212,187.80384447636055 L427.37398790394764,187.21008460435758 M427.37398790394764,187.21008460435758 L427.4404853832153,186.53962092713897 M427.4404853832153,186.53962092713897 L427.63601580607747,185.83141614766436 M427.63601580607747,185.83141614766436 L427.94921274428333,185.12663836642236 M427.94921274428333,185.12663836642236 L428.3618820523717,184.46624716919433 M428.3618820523717,184.46624716919433 L428.8500302364725,183.88861616027862 M428.8500302364725,183.88861616027862 L429.38529575156053,183.42732049508874 M429.38529575156053,183.42732049508874 L429.936564965861,183.1091669550862 M429.936564965861,183.1091669550862 L430.4717999889843,182.95264476054825 M430.4717999889843,182.95264476054825 L430.9598978594226,182.96685280339466 M430.9598978594226,182.96685280339466 L431.37248662682174,183.15095776456758 M431.37248662682174,183.15095776456758 L431.685593261346,183.49426906441175 M431.685593261346,183.49426906441175 L431.88102185930563,183.97682991897892 M431.88102185930563,183.97682991897892 L431.94741280771626,184.57058984299255 M431.94741280771626,184.57058984299255 L383.4397507016398,156.58065072364928 M383.4397507016398,156.58065072364928 L383.37327590914094,155.98692750916905 M383.37327590914094,155.98692750916905 L383.17776833796705,155.50437773439734 M383.17776833796705,155.50437773439734 L382.8645921918087,155.1610512404411 M382.8645921918087,155.1610512404411 L382.45194741483175,154.9769056936678 M382.45194741483175,154.9769056936678 L381.96381029045784,154.9626340322393 M381.96381029045784,154.9626340322393 L381.42855505179085,155.11907327245638 M381.42855505179085,155.11907327245638 L380.8772858346058,155.43712934305813 M380.8772858346058,155.43712934305813 L380.34204052945995,155.89831868823774 M380.34204052945995,155.89831868823774 L379.8539315941864,156.47584070612783 M379.8539315941864,156.47584070612783 L379.44131829135773,157.13612657495906 M379.44131829135773,157.13612657495906 L379.1281908615088,157.84080881286502 M379.1281908615088,157.84080881286502 L378.9327394098153,158.54893338589648 M378.9327394098153,158.54893338589648 L378.86632577394073,159.21933685617353 M378.86632577394073,159.21933685617353 L378.932812231123,159.8130600200157 M378.932812231123,159.8130600200157 L379.1283309602929,160.2956041366167 M379.1283309602929,160.2956041366167 L379.4415152014691,160.63892066114 M379.4415152014691,160.63892066114 L379.85417106808336,160.82304964622585 M379.85417106808336,160.82304964622585 L380.34230601040986,160.83730986692552 M380.34230601040986,160.83730986692552 L380.87756002103595,160.68085900873928 M380.87756002103595,160.68085900873928 L381.42882133351645,160.36279836928117 M381.42882133351645,160.36279836928117 L381.9640538681425,159.90161255101395 M381.9640538681425,159.90161255101395 L382.45215600471494,159.3240967830514 M382.45215600471494,159.3240967830514 L382.86475631218514,158.6638263744161 M382.86475631218514,158.6638263744161 L383.1778812531458,157.95915734624128 M383.1778812531458,157.95915734624128 L383.37333338043896,157.25104527110472 M383.37333338043896,157.25104527110472 L383.4397507016398,156.58065072364928" stroke="black"  stroke-width="4"  fill="red"/>
<path d="M431.94741280771626,184.57058984299255 L431.88091164370206,185.24104459601244 M431.88091164370206,185.24104459601244 L431.6853805468466,185.94923687480855 M431.6853805468466,185.94923687480855 L431.3721860997937,186.6540014427668 M431.3721860997937,186.6540014427668 L430.95952978946826,187.31437717489274 M430.95952978946826,187.31437717489274 L430.47138840606186,187.89200193117148 M430.47138840606186,187.89200193117148 L429.93613566261905,188.35329406713038 M429.93613566261905,188.35329406713038 L429.38487435302306,188.67145217599153 M429.38487435302306,188.67145217599153 L428.84964055681496,188.82798599082116 M428.84964055681496,188.82798599082116 L428.36154486643056,188.8137893914154 M428.36154486643056,188.8137893914154 L427.9489450069897,188.62970099683707 M427.9489450069897,188.62970099683707 L427.63583027518285,188.28639966997656 M427.63583027518285,188.28639966997656 L427.4403905176212,187.80384447636055 M427.4403905176212,187.80384447636055 L427.37398790394764,187.21008460435758 M427.37398790394764,187.21008460435758 L429.315273067022,192.48929807035483 M441.095301148819,185.6903646445279 L440.92397104969945,187.41730428928952 M440.92397104969945,187.41730428928952 L440.42031030521497,189.24141477396125 M440.42031030521497,189.24141477396125 L439.6135849123088,191.05671968306774 M439.6135849123088,191.05671968306774 L438.55068048760666,192.7577064842963 M438.55068048760666,192.7577064842963 L437.2933603104373,194.24553092965175 M437.2933603104373,194.24553092965175 L435.9146933153876,195.43374151213686 M435.9146933153876,195.43374151213686 L434.49479437598404,196.25327734864925 M434.49479437598404,196.25327734864925 L433.1161764829121,196.65650849598842 M433.1161764829121,196.65650849598842 L431.8589640923962,196.6200001929954 M431.8589640923962,196.6200001929954 L430.79621701078315,196.14585674088283 M430.79621701078315,196.14585674088283 L429.98970037388347,195.26162534340085 M429.98970037388347,195.26162534340085 L429.4863001226941,194.01870248123652 M429.4863001226941,194.01870248123652 L429.315273067022,192.48929807035483 M431.94741280771626,184.57058984299255 L441.095301148819,185.6903646445279 M427.37398790394764,187.21008460435758 L427.4404853832153,186.53962092713897 M427.4404853832153,186.53962092713897 L427.63601580607747,185.83141614766436 M427.63601580607747,185.83141614766436 L427.94921274428333,185.12663836642236 M427.94921274428333,185.12663836642236 L428.3618820523717,184.46624716919433 M428.3618820523717,184.46624716919433 L428.8500302364725,183.88861616027862 M428.8500302364725,183.88861616027862 L429.38529575156053,183.42732049508874 M429.38529575156053,183.42732049508874 L429.936564965861,183.1091669550862 M429.936564965861,183.1091669550862 L430.4717999889843,182.95264476054825 M430.4717999889843,182.95264476054825 L430.9598978594226,182.96685280339466 M430.9598978594226,182.96685280339466 L431.37248662682174,183.15095776456758 M431.37248662682174,183.15095776456758 L431.685593261346,183.49426906441175 M431.685593261346,183.49426906441175 L431.88102185930563,183.97682991897892 M431.88102185930563,183.97682991897892 L431.94741280771626,184.57058984299255 M429.315273067022,192.48929807035483 L429.48656270120335,190.76230846173974 M429.48656270120335,190.76230846173974 L429.9902189753991,188.93811503975866 M429.9902189753991,188.93811503975866 L430.79697691649903,187.12271321867547 M430.79697691649903,187.12271321867547 L431.85993973582816,185.42163987778548 M431.85993973582816,185.42163987778548 L433.11732867848247,183.93376030124995 M433.11732867848247,183.93376030124995 L434.4960685859311,182.74553312501405 M434.4960685859311,182.74553312501405 L435.91601996930854,181.92602760071884 M435.91601996930854,181.92602760071884 L437.29465782368135,181.52286672742082 M437.29465782368135,181.52286672742082 L438.55186103205506,181.5594646003118 M438.55186103205506,181.5594646003118 L439.6145623619474,182.033701899589 M439.6145623619474,182.033701899589 L440.42100925663107,182.91800871118653 M440.42100925663107,182.91800871118653 L440.9243354686684,184.16096913280205 M440.9243354686684,184.16096913280205 L441.095301148819,185.6903646445279" stroke="black"  stroke-width="4"  fill="red"/></svg>